<svg width="251" height="255" viewBox="0 0 251 255" fill="none" xmlns="http://www.w3.org/2000/svg">
<path d="M118 147.5C119.479 141.25 122.715 137.502 126.12 133.559C128.717 130.552 131.412 127.431 133.5 123C134.072 121.787 134.623 120.641 135.151 119.542C138.689 112.186 141.213 106.937 142 98M118 147.5C118 147.5 108.142 153.714 101 155C95.6193 155.969 92.2587 156.496 87.0001 155C80.5378 153.161 73.0001 145 73.0001 145M118 147.5C116.157 155.291 110.736 164.634 118 168C121.366 169.56 123.791 167.906 127.5 168M73.0001 145C71.4974 140.191 68.1989 137.942 64.7195 135.57C61.9999 133.716 59.1697 131.786 57.0001 128.5C51.3462 119.936 49.4962 114.066 47.5001 104C47.0783 101.873 46.6916 99.8903 46.3649 98M73.0001 145C75.7195 153.702 74.757 160.931 69.0001 168C66.7939 170.709 64.26 171.758 61.5001 171.876M46.3649 98C44.956 89.8478 44.6645 83.4117 47.5001 74.5C49.8062 67.2528 51.4863 62.7379 57.0001 57.5C63.5994 51.2309 69.4408 49.3827 78.5001 48.5C85.8076 47.788 90.5206 49.4156 96.6756 51.5412C98.0326 52.0098 99.4597 52.5027 101 53C110.228 55.9789 115.178 58.5235 123.5 63.5C125.236 64.5382 126.872 65.369 128.415 66.1532C132.535 68.2464 136.003 70.0084 139 74.5C143.599 81.3922 143.017 87.3993 142.263 95.1977C142.175 96.1065 142.085 97.0381 142 98M46.3649 98C46.3649 98 36.5543 95.644 32.0001 91.5C24.3227 84.5139 25.1456 76.3601 24.5001 66C24.0241 58.3596 22.7385 53.1672 26.5001 46.5C29.768 40.7079 34.7266 40.1304 39.5001 35.5C45.961 29.2328 47.7069 23.9053 54.5001 18C59.6915 13.4871 62.7044 10.7712 69.0001 7.99999C78.2 3.95041 84.4491 4.38494 94.5001 4.49999C103.778 4.6062 110.191 2.98858 118 7.99999C122.533 10.9093 123.935 13.9621 127.5 18C131.174 22.1607 133.046 24.6556 136.5 29C140.487 34.0133 142.67 36.8663 146.5 42C149.676 46.2573 152.125 48.249 154.5 53C156.876 57.7509 157.868 60.726 158.5 66C159.318 72.8298 159.325 77.2279 156.5 83.5C153.212 90.8019 142 98 142 98M186.528 222C185.705 212.956 184.082 203.44 181 196C180.284 194.27 179.653 192.633 179.052 191.076C176.399 184.194 174.331 178.829 168 173.5C159.148 166.049 150.232 166.723 139.918 167.504C136.004 167.8 131.889 168.112 127.5 168M186.528 222H146.5M186.528 222C187.932 237.439 187 251.5 187 251.5H146.5M146.5 222V251.5M146.5 222V207.5M146.5 251.5H42.5001M42.5001 251.5V222M42.5001 251.5H4.00014C4.00014 251.5 3.13026 237.246 4.41033 222M42.5001 222H4.41033M42.5001 222V205M4.41033 222C5.06847 214.161 6.29494 206.061 8.50014 199.5C9.13538 197.61 9.6706 195.843 10.1782 194.167C12.1394 187.692 13.6884 182.578 19.0001 177C23.2582 172.528 26.381 170.56 32.0001 168C38.0595 165.24 44.4537 167.403 50.4804 169.441C54.3697 170.757 58.1059 172.02 61.5001 171.876M61.5001 171.876C61.5001 171.876 63.8799 184.303 69.0001 190C74.3131 195.912 79.2506 197.733 87.0001 199.5C93.6633 201.019 97.8783 201.19 104.5 199.5C111.704 197.661 116.182 195.663 121 190C126.806 183.177 127.5 168 127.5 168M101 88.4999C101 88.4999 108.107 81.0856 112.5 80.4999C116.894 79.9141 126.12 88.4999 126.12 88.4999M61.5001 88.4999C61.5001 88.4999 69.2173 81.2223 73.0001 80.4999C78.7027 79.4109 87.0001 88.4999 87.0001 88.4999M78.5001 128.5C78.5001 128.5 79.3783 119.049 83.5001 115.5C86.9162 112.558 89.994 111.871 94.5001 112C98.636 112.118 101.45 112.705 104.5 115.5C108.416 119.089 108.5 128.5 108.5 128.5M181 120H234.5M177 159.5V140H168V100.5H247.5V140H215.5L177 159.5Z" stroke="#FFEB3B" stroke-width="7"/>
</svg>
