<svg width="44" height="42" viewBox="0 0 44 42" fill="none" xmlns="http://www.w3.org/2000/svg">
<path d="M0.234686 2.66547C0.250816 2.34951 0.445874 1.99763 0.639551 1.722C0.871237 1.39227 1.26208 1.22993 1.66494 1.21985L5.61821 1.12091C5.72612 1.11821 5.83396 1.12623 5.93853 1.15302C6.193 1.21822 6.68763 1.37514 6.91085 1.65248C7.11433 1.90529 7.184 2.37211 7.20712 2.6156C7.21702 2.71986 7.23036 2.82398 7.25465 2.92585L7.8182 5.28874C8.00708 6.08067 8.77829 6.58998 9.58079 6.45275L21 4.5L29.6901 3.84654C30.1971 3.80841 30.6887 4.02011 31.0069 4.41667C32.3161 6.04802 35.7924 10.3898 37 12C39.0056 14.6742 41.2622 18.8925 42 20.5C42.1101 20.7399 42.4832 21.6821 42.7411 22.3386C42.903 22.7507 42.8293 23.204 42.5 23.5C41.9851 23.9627 38.5 25.132 37.6553 25.132C35.53 25.132 17.3358 25.627 12.7495 25.7527C12.1267 25.7698 11.5919 26.1934 11.4295 26.7949C11.1835 27.7057 11.8836 28.5966 12.8268 28.573L40.1949 27.8881C40.5812 27.8784 40.9645 28.0084 41.2097 28.3069C41.4309 28.5762 41.6596 28.9323 41.6679 29.261C41.6761 29.5923 41.4622 29.9626 41.2532 30.2433C41.0254 30.5494 40.655 30.6981 40.2737 30.7111L10.038 31.7432C9.94479 31.7463 9.85203 31.7415 9.76059 31.7232C9.41783 31.6548 8.52882 31.4348 8.20242 30.9445C8.06475 30.7377 7.98564 30.4204 7.94228 30.1763C7.90138 29.946 7.93948 29.7129 8.02051 29.4935C8.32032 28.6818 9.06193 26.5454 9.17054 24.999C9.23994 24.0108 9.10706 22.4629 9.10706 22.4629L5.62836 6.19602C5.62836 6.19602 5.33915 3.94043 4.72778 3.68087C4.53976 3.60105 4.26071 3.62892 4.07727 3.66122C3.95227 3.68322 3.82644 3.70343 3.69956 3.70661L1.52703 3.76098C0.926247 3.77602 0.311211 3.44805 0.242076 2.85107C0.234643 2.78688 0.231679 2.72437 0.234686 2.66547Z" fill="#FFEB3B"/>
<path d="M40.3708 19.8778C40.3708 19.8778 41.19 21.1567 41 22C40.7038 23.3142 37.9481 23.6079 37.9481 23.6079M40.3708 19.8778L11.9377 21.0333M40.3708 19.8778L36.0229 13.8636M11.9377 21.0333L12.5769 24.2619L18.6954 23.8558M11.9377 21.0333L11.0244 16.421M11.0244 16.421L36.0229 13.8636M11.0244 16.421L10.2025 12.27M36.0229 13.8636L32.6672 9.78416M36.0229 13.8636L37.9481 23.6079M10.2025 12.27L9.38055 8.11889L13.9362 7.56708M10.2025 12.27L32.6672 9.78416M32.6672 9.78416L29.3115 5.70473L28.34 5.8224M13.9362 7.56708L18.6954 23.8558M13.9362 7.56708L21.6238 6.63591M18.6954 23.8558L26.9872 23.2201M21.6238 6.63591L26.9872 23.2201M21.6238 6.63591L28.34 5.8224M26.9872 23.2201L33.9003 22.6806M28.34 5.8224L33.9003 22.6806M33.9003 22.6806L37.9481 23.6079" stroke="#26355D" stroke-width="0.772201"/>
<circle cx="16.6034" cy="36.0776" r="3.31545" transform="rotate(-1.43368 16.6034 36.0776)" fill="#FFEB3B"/>
<circle cx="34.0689" cy="36.6226" r="4.38157" transform="rotate(-1.43368 34.0689 36.6226)" fill="#FFEB3B"/>
</svg>
