<svg width="36" height="40" viewBox="0 0 36 40" fill="none" xmlns="http://www.w3.org/2000/svg">
<path d="M1 17.3666V10.5646C1 10.3721 1.02602 10.1802 1.09637 10.0011C1.19466 9.75086 1.3639 9.38916 1.58441 9.18331C1.81897 8.96434 2.24244 8.79953 2.51013 8.71099C2.67033 8.658 2.83862 8.63775 3.00736 8.63775H21.7467M23.0171 11.3655L22.0547 13.0187C21.8539 13.3635 21.7609 13.7605 21.7875 14.1586L21.8376 14.9054C21.9331 16.3329 23.453 17.2013 24.7313 16.5588L25.2717 16.2871C25.6399 16.1021 25.942 15.8078 26.1365 15.4445L27.1525 13.5477M23.0171 11.3655L27.1525 13.5477M23.0171 11.3655L27.7813 3.18222M27.1525 13.5477L29.7823 8.63775M27.7813 3.18222L28.1056 2.62534C28.6373 1.71198 29.7879 1.37 30.7322 1.84466L31.0165 1.98759C32.0216 2.49279 32.4125 3.72723 31.8813 4.71884L31.5356 5.36443M27.7813 3.18222L31.5356 5.36443M31.5356 5.36443L29.7823 8.63775M29.7823 8.63775H32.2661C32.2661 8.63775 33.2898 8.78026 33.7271 9.18331C33.9501 9.38885 34.1196 9.75341 34.2172 10.0042C34.2862 10.1813 34.3115 10.3709 34.3115 10.5609V13.8205M34.3115 15.73V31.3956C34.3115 31.499 34.3039 31.6023 34.2821 31.7035C34.2202 31.9905 34.0544 32.6094 33.7271 32.9149C33.2926 33.3205 32.2661 33.4605 32.2661 33.4605H22.293C22.1242 33.4605 21.9559 33.4807 21.7958 33.5337C21.5281 33.6222 21.1046 33.787 20.87 34.006C20.6321 34.2282 20.4538 34.6318 20.36 34.881C20.3064 35.0232 20.2478 35.1639 20.1728 35.2961L19.4047 36.6504C18.6365 38.0051 16.683 38.0006 15.9208 36.6424L14.6415 34.3625C14.5095 34.1273 14.3328 33.9188 14.1084 33.7692C13.9421 33.6583 13.7396 33.5346 13.5649 33.4605C13.0352 33.2357 12.1038 33.1877 12.1038 33.1877H2.75324C2.75324 33.1877 1.95686 33.1833 1.58441 32.9149C1.31365 32.7198 1.14331 32.2961 1.06041 32.0378C1.01515 31.8969 1 31.7491 1 31.601V19.2761M4.50648 12.1839H19.409M4.50648 14.9116H19.2264M4.50648 17.9122H6.84413M8.88957 17.9122H19.409" stroke="#FFEB3B" stroke-width="2"/>
<path d="M9.62427 24.335H10.4786M12.8318 24.335H13.6709M9.62427 26.9321C9.62427 26.9321 10.3344 27.4948 10.8888 27.6404C11.4593 27.7902 11.8359 27.7902 12.4063 27.6404C12.9608 27.4948 13.6709 26.9321 13.6709 26.9321M22.0172 24.335H22.9072M25.2875 24.335H26.1903M22.2701 27.1682C22.2701 27.1682 22.8362 26.6588 23.2817 26.4599C23.5635 26.3341 23.7291 26.2462 24.0405 26.2238C24.4465 26.1946 24.672 26.3234 25.0521 26.4599C25.5897 26.6529 26.3167 27.1682 26.3167 27.1682M14.4297 21.6494C13.7296 21.2095 12.9926 21.1129 12.1534 21.0296C11.1518 20.9303 10.524 21.0792 9.62427 21.5018C8.81082 21.8839 8.36854 22.2172 7.85385 22.9184C7.37688 23.5683 7.21992 24.0281 7.09511 24.8072C6.9483 25.7236 6.92915 26.3281 7.34802 27.1682C7.67355 27.8211 8.02282 28.3567 8.6126 28.8209C9.22141 29.3 9.62427 29.296 10.383 29.5292C11.0464 29.7331 11.4552 29.7805 12.1534 29.7653L12.1645 29.7651C12.7585 29.7522 13.1201 29.7443 13.6709 29.5292C14.3826 29.2513 14.7191 28.9202 15.1884 28.3487C15.5915 27.8578 15.7469 27.5217 15.9472 26.9321C16.1583 26.3106 16.1878 25.9313 16.2001 25.2794C16.2141 24.5362 15.9472 23.3906 15.9472 23.3906C15.9472 23.3906 15.8918 22.8667 15.6942 22.6823C15.2004 22.2213 15.009 22.0135 14.4297 21.6494ZM26.3167 21.7379C25.5928 21.3895 25.1069 21.3019 24.2934 21.2657C23.2873 21.221 22.6244 21.2487 21.7642 21.7379C20.9866 22.1802 20.4409 22.6501 19.9938 23.3906C19.4876 24.2292 19.4116 24.7916 19.488 25.7516C19.5601 26.6572 19.9235 27.1449 20.4997 27.8765C21.137 28.6858 21.6128 29.154 22.611 29.5292C23.5 29.8634 24.1095 29.9273 25.0521 29.7653C25.7919 29.6381 26.2181 29.4749 26.8226 29.057C27.4401 28.63 27.6834 28.2579 28.0826 27.6474L28.0871 27.6404C28.479 27.041 28.6909 26.6748 28.8459 25.9877C29.0087 25.2659 29.1362 24.7849 28.8459 24.0989C28.6135 23.5498 28.2724 23.108 27.8342 22.6823C27.2998 22.163 27.0024 22.0679 26.3167 21.7379Z" stroke="#FFEB3B" stroke-width="1.1252"/>
</svg>
