<svg width="37" height="38" viewBox="0 0 37 38" fill="none" xmlns="http://www.w3.org/2000/svg">
<path d="M28.0853 33.6124C30.331 31.7072 33.7717 28.5471 35.05 24.2981C36.285 20.1931 36.3479 17.3746 35.05 13.2903C33.7472 9.19023 32.0885 6.92127 28.6998 4.39938C25.5381 2.0465 23.1716 1.11587 19.2768 1.01236C16.2494 0.931914 14.0552 1.22363 11.2877 2.49422C7.44972 4.2563 5.25119 6.17974 3.0938 9.90329C0.909561 13.6732 0.716404 16.5519 1.25016 20.9111C1.78391 25.2703 3.0938 27.0501 5.75681 30.6488C6.7539 31.9962 7.51732 32.5934 8.82953 33.6124M28.0853 33.6124C28.0853 32.9437 28.0853 32.9437 27.6755 32.1306C27.4006 31.5851 27.2659 28.5319 27.061 25.7799C26.9892 24.8152 26.8376 24.1976 26.2416 23.4514C25.3236 22.3019 24.1819 22.4255 22.7592 22.1812C21.4176 21.9509 20.6113 22.4515 19.2768 22.1812C17.7304 21.8681 16.8019 21.5279 15.5895 20.4877C14.2063 19.301 13.6141 18.2552 13.1313 16.4656C12.6802 14.7933 12.5506 13.6492 13.1313 12.0202C13.6626 10.5301 14.2795 9.6751 15.5895 8.84484C16.8469 8.04788 17.8076 7.86202 19.2768 7.99809C20.9519 8.15323 22.04 8.61493 23.1689 9.90329C24.1066 10.9735 24.4381 11.8566 24.6028 13.2903C24.7164 14.2788 24.615 14.8607 24.398 15.8306C23.9866 17.669 23.4519 18.7469 22.1446 20.0643C21.3186 20.8967 20.7426 21.2779 19.6865 21.7579C17.6308 22.6921 16.2041 22.1812 13.9507 22.1812C13.0386 22.1812 12.419 22.2397 11.6974 22.8163C11.153 23.2513 10.7824 23.8748 10.6732 24.2981C9.85381 27.4735 9.64896 28.7436 9.44407 31.7072C9.38999 32.4895 9.09242 32.8767 8.82953 33.6124M28.0853 33.6124C26.1408 34.9718 25.405 35.4675 23.1689 36.1527C21.2887 36.7289 20.2136 36.9832 18.2525 36.9994C16.213 37.0163 15.0506 36.6541 13.1313 35.941C11.3467 35.2779 10.5095 34.5218 8.82953 33.6124" stroke="#FFEB3B" stroke-width="2"/>
</svg>
