<svg width="512" height="512" viewBox="0 0 512 512" fill="none" xmlns="http://www.w3.org/2000/svg">
<g clip-path="url(#clip0_767_11)">
<g filter="url(#filter0_d_767_11)">
<circle cx="256.058" cy="256.058" r="220.058" fill="#FFEB3B"/>
</g>
<path d="M207.447 320.286L223.163 325.001L243.594 316.619L248.309 301.951V280.472L238.879 265.804L223.163 258.469L203.256 261.089L185.968 265.804L182.301 280.472L185.968 307.189L207.447 320.286Z" fill="#FF5722"/>
<path d="M185.584 292.224L203.302 322.827H224.241L241.959 313.163L254.845 292.224L241.959 263.231L216.188 253.567L185.584 263.231V292.224Z" fill="#FF5722"/>
<path d="M417.526 344.197C417.526 356.178 415.394 366.501 411.129 375.165C407.05 383.644 401.116 390.188 393.328 394.797C385.541 399.221 376.269 401.433 365.515 401.433C352.35 401.433 340.76 398.115 330.748 391.479C320.735 384.658 312.39 375.626 305.715 364.381C299.225 353.506 294.404 340.971 291.252 326.777C287.914 312.583 286.245 297.836 286.245 282.537C286.245 267.79 287.543 254.426 290.139 242.444C292.55 230.278 295.98 219.586 300.43 210.37C305.437 199.862 311.463 191.107 318.509 184.102C325.37 177.097 332.787 171.936 340.76 168.618C348.919 165.115 357.171 163.364 365.515 163.364C381.647 163.364 394.348 168.433 403.62 178.572C412.891 188.526 417.526 202.996 417.526 221.983C417.526 234.886 415.672 247.513 411.964 259.863C408.441 272.03 403.063 283.827 395.832 295.256C391.196 304.841 384.892 314.15 376.918 323.182C368.945 332.215 359.952 340.602 349.939 348.344C340.111 355.902 330.099 362.354 319.9 367.699C304.51 376.179 289.027 382.723 273.451 387.331C257.69 391.755 240.816 393.967 222.83 393.967C206.698 393.967 190.937 391.294 175.547 385.948C160.156 380.418 146.342 372.123 134.104 361.063C121.866 349.819 112.131 335.717 104.9 318.758C97.4827 301.615 93.7742 281.431 93.7742 258.204C93.7742 235.531 93.7742 219.218 103.231 199.862C123.08 159.236 138.349 154.689 170.818 138.449C183.613 136.053 221.81 127.972 238.684 127.972H328.244C328.244 127.972 196.569 178.642 176.937 154.689C166.068 141.428 138.986 167.681 125.199 187.143C106.586 213.416 110.006 254.61 110.006 254.61C110.006 270.094 117.045 288.251 121.866 301.892C126.502 315.348 133.455 327.238 142.726 337.561C151.998 347.699 163.401 355.718 176.937 361.616C190.473 367.331 206.142 370.188 223.943 370.188C235.439 370.188 246.008 369.358 255.65 367.699C265.107 366.04 274.193 363.552 282.908 360.234C291.623 356.916 300.523 352.953 309.609 348.344C318.695 344.104 327.966 338.39 337.423 331.201C346.879 324.012 355.78 315.625 364.124 306.039C372.468 296.454 379.607 286.131 385.541 275.071C389.991 267.145 393.05 259.126 394.719 251.015C396.573 242.72 397.501 233.872 397.501 224.471C397.501 210.83 394.348 201.245 388.044 195.715C381.925 190.001 373.952 187.143 364.124 187.143C354.667 187.143 346.045 190.001 338.257 195.715C330.469 201.429 324.258 208.803 319.622 217.835C314.986 226.683 311.649 236.729 309.609 247.974C307.384 259.034 306.271 270.371 306.271 281.984C306.271 298.205 307.94 312.399 311.278 324.565C314.43 336.547 318.602 346.409 323.794 354.151C329.171 362.261 335.29 368.252 342.151 372.123C349.197 375.994 356.429 377.93 363.846 377.93C374.044 377.93 382.203 375.073 388.322 369.358C394.441 363.46 397.501 353.966 397.501 340.879C397.501 332.768 396.852 325.026 395.554 317.652C394.441 310.279 391.845 302.998 387.766 295.809C382.574 284.38 375.528 273.873 366.627 264.288C357.727 254.702 347.899 246.499 337.145 239.679C326.39 232.674 315.728 227.697 305.159 224.748C297.556 222.167 289.954 220.324 282.352 219.218C274.564 217.927 266.683 217.282 258.71 217.282C245.359 217.282 234.141 219.125 225.055 222.812C215.784 226.315 208.46 230.923 203.082 236.637C197.705 242.352 193.996 248.343 191.957 254.61L190.566 268.435C190.381 269.725 190.288 271.292 190.288 273.136C190.103 274.795 190.01 276.454 190.01 278.113C190.01 284.749 191.03 290.74 193.069 296.085C194.924 301.247 197.89 305.394 201.97 308.528C206.049 311.662 211.148 313.228 217.267 313.228C224.128 313.228 229.876 311.201 234.512 307.145C239.147 302.906 241.465 297.007 241.465 289.449C241.465 282.629 239.333 277.099 235.068 272.859C230.618 268.619 224.406 266.5 216.433 266.5C210.499 266.5 205.029 267.606 200.023 269.818C195.016 272.03 190.01 275.532 185.003 280.325L186.394 258.204C188.99 255.624 192.049 253.412 195.573 251.568C198.91 249.541 202.619 247.974 206.698 246.868C210.592 245.578 214.764 244.932 219.214 244.932C227.188 244.932 234.326 246.684 240.631 250.186C246.75 253.688 251.571 258.757 255.094 265.394C258.617 272.03 260.379 280.232 260.379 290.002C260.379 298.297 258.617 305.855 255.094 312.675C251.571 319.496 246.565 324.934 240.075 328.989C233.585 333.044 226.075 335.072 217.545 335.072C206.976 335.072 198.261 332.399 191.401 327.054C184.354 321.523 179.162 314.058 175.825 304.657C172.487 295.256 170.818 284.749 170.818 273.136C170.818 255.439 174.434 240.693 181.666 228.895C188.897 217.098 199.003 208.25 211.983 202.351C224.962 196.268 240.167 193.226 257.597 193.226C265.756 193.226 275.305 194.056 286.245 195.715C297.186 197.374 307.94 200.508 318.509 205.116C329.82 209.171 340.39 214.517 350.217 221.153C360.045 227.605 368.945 235.07 376.918 243.55C384.892 252.029 391.752 261.246 397.501 271.2C403.805 282.997 408.719 294.979 412.242 307.145C415.765 319.311 417.526 331.662 417.526 344.197Z" fill="#26355D"/>
<circle cx="370.37" cy="128.025" r="17.8116" fill="#FF5722"/>
<path d="M321.689 359.874C321.689 370.343 206.524 349.404 192.833 326.854L233.1 322.022C241.154 339.74 295.918 351.82 337.796 342.156L321.689 359.874Z" fill="#26355D"/>
</g>
<defs>
<filter id="filter0_d_767_11" x="11.9" y="17.9" width="496.316" height="496.316" filterUnits="userSpaceOnUse" color-interpolation-filters="sRGB">
<feFlood flood-opacity="0" result="BackgroundImageFix"/>
<feColorMatrix in="SourceAlpha" type="matrix" values="0 0 0 0 0 0 0 0 0 0 0 0 0 0 0 0 0 0 127 0" result="hardAlpha"/>
<feOffset dx="4" dy="10"/>
<feGaussianBlur stdDeviation="14.05"/>
<feComposite in2="hardAlpha" operator="out"/>
<feColorMatrix type="matrix" values="0 0 0 0 0.14902 0 0 0 0 0.207843 0 0 0 0 0.364706 0 0 0 0.58 0"/>
<feBlend mode="normal" in2="BackgroundImageFix" result="effect1_dropShadow_767_11"/>
<feBlend mode="normal" in="SourceGraphic" in2="effect1_dropShadow_767_11" result="shape"/>
</filter>
<clipPath id="clip0_767_11">
<rect width="512" height="512" fill="white"/>
</clipPath>
</defs>
</svg>
