<svg width="26" height="26" viewBox="0 0 26 26" fill="none" xmlns="http://www.w3.org/2000/svg">
<path d="M8.43095 9.41038C10.0324 13.7791 11.6903 15.5222 15.908 17.3788L14.0802 19.9459C9.23693 17.6271 6.8246 13.7185 5.68847 10.6683L8.43095 9.41038Z" fill="#26355D"/>
<path d="M9.77427 3.37901C10.6306 3.37566 11.2817 4.08822 11.2233 4.89507C11.1315 6.16479 11.2293 7.08088 11.4926 8.21639C11.6373 8.84014 11.31 9.47364 10.79 9.88168C10.089 10.4317 9.55349 11.1324 9.12787 11.7357C8.53794 12.5718 6.50778 12.5118 6.05881 11.6009C5.1361 9.72883 4.51079 6.27989 5.85821 3.94972C6.06985 3.58371 6.496 3.39183 6.93758 3.39011L9.77427 3.37901Z" fill="#26355D"/>
<path d="M22.7734 17.2321C22.8799 16.4297 22.2092 15.7335 21.354 15.6912C20.0082 15.6247 19.057 15.4228 17.8951 15.0394C17.2568 14.8287 16.5515 15.0594 16.0601 15.4979C15.3976 16.0889 14.5966 16.5067 13.9113 16.8332C12.9614 17.2857 12.7804 19.1963 13.6839 19.7268C15.5408 20.817 19.091 21.8181 21.7025 20.835C22.1127 20.6806 22.3657 20.3042 22.4206 19.8904L22.7734 17.2321Z" fill="#26355D"/>
</svg>
