<svg width="27" height="27" viewBox="0 0 27 27" fill="none" xmlns="http://www.w3.org/2000/svg">
<path d="M6 13.5V15C6 15.2761 6.22386 15.5 6.5 15.5H7.5C7.77614 15.5 8 15.2761 8 15V13.5C8 13.2239 7.77614 13 7.5 13H6.5C6.22386 13 6 13.2239 6 13.5Z" fill="#26355D"/>
<path d="M10.5 13.5V15C10.5 15.2761 10.7239 15.5 11 15.5H12C12.2761 15.5 12.5 15.2761 12.5 15V13.5C12.5 13.2239 12.2761 13 12 13H11C10.7239 13 10.5 13.2239 10.5 13.5Z" fill="#26355D"/>
<path d="M15 13.5V15C15 15.2761 15.2239 15.5 15.5 15.5H16.5C16.7761 15.5 17 15.2761 17 15V13.5C17 13.2239 16.7761 13 16.5 13H15.5C15.2239 13 15 13.2239 15 13.5Z" fill="#26355D"/>
<path d="M19.5 13.5V15C19.5 15.2761 19.7239 15.5 20 15.5H21C21.2761 15.5 21.5 15.2761 21.5 15V13.5C21.5 13.2239 21.2761 13 21 13H20C19.7239 13 19.5 13.2239 19.5 13.5Z" fill="#26355D"/>
<path d="M6 19.5V21C6 21.2761 6.22386 21.5 6.5 21.5H7.5C7.77614 21.5 8 21.2761 8 21V19.5C8 19.2239 7.77614 19 7.5 19H6.5C6.22386 19 6 19.2239 6 19.5Z" fill="#26355D"/>
<path d="M10.5 19.5V21C10.5 21.2761 10.7239 21.5 11 21.5H12C12.2761 21.5 12.5 21.2761 12.5 21V19.5C12.5 19.2239 12.2761 19 12 19H11C10.7239 19 10.5 19.2239 10.5 19.5Z" fill="#26355D"/>
<path d="M15 19.5V21C15 21.2761 15.2239 21.5 15.5 21.5H16.5C16.7761 21.5 17 21.2761 17 21V19.5C17 19.2239 16.7761 19 16.5 19H15.5C15.2239 19 15 19.2239 15 19.5Z" fill="#26355D"/>
<path d="M19.5 21V19.5C19.5 19.2239 19.7239 19 20 19H21C21.2761 19 21.5 19.2239 21.5 19.5V21C21.5 21.2761 21.2761 21.5 21 21.5H20C19.7239 21.5 19.5 21.2761 19.5 21Z" fill="#26355D"/>
<path d="M7 1V4.5C7 4.77614 7.22386 5 7.5 5H8C8.27614 5 8.5 4.77614 8.5 4.5V1C8.5 0.723858 8.27614 0.5 8 0.5H7.5C7.22386 0.5 7 0.723858 7 1Z" fill="#26355D"/>
<path d="M19 0.5H18.5C18.2239 0.5 18 0.723858 18 1V4.5C18 4.77614 18.2239 5 18.5 5H19C19.2761 5 19.5 4.77614 19.5 4.5V1C19.5 0.723858 19.2761 0.5 19 0.5Z" fill="#26355D"/>
<path d="M6 13.5V15C6 15.2761 6.22386 15.5 6.5 15.5H7.5C7.77614 15.5 8 15.2761 8 15V13.5C8 13.2239 7.77614 13 7.5 13H6.5C6.22386 13 6 13.2239 6 13.5Z" stroke="#26355D"/>
<path d="M10.5 13.5V15C10.5 15.2761 10.7239 15.5 11 15.5H12C12.2761 15.5 12.5 15.2761 12.5 15V13.5C12.5 13.2239 12.2761 13 12 13H11C10.7239 13 10.5 13.2239 10.5 13.5Z" stroke="#26355D"/>
<path d="M15 13.5V15C15 15.2761 15.2239 15.5 15.5 15.5H16.5C16.7761 15.5 17 15.2761 17 15V13.5C17 13.2239 16.7761 13 16.5 13H15.5C15.2239 13 15 13.2239 15 13.5Z" stroke="#26355D"/>
<path d="M19.5 13.5V15C19.5 15.2761 19.7239 15.5 20 15.5H21C21.2761 15.5 21.5 15.2761 21.5 15V13.5C21.5 13.2239 21.2761 13 21 13H20C19.7239 13 19.5 13.2239 19.5 13.5Z" stroke="#26355D"/>
<path d="M6 19.5V21C6 21.2761 6.22386 21.5 6.5 21.5H7.5C7.77614 21.5 8 21.2761 8 21V19.5C8 19.2239 7.77614 19 7.5 19H6.5C6.22386 19 6 19.2239 6 19.5Z" stroke="#26355D"/>
<path d="M10.5 19.5V21C10.5 21.2761 10.7239 21.5 11 21.5H12C12.2761 21.5 12.5 21.2761 12.5 21V19.5C12.5 19.2239 12.2761 19 12 19H11C10.7239 19 10.5 19.2239 10.5 19.5Z" stroke="#26355D"/>
<path d="M15 19.5V21C15 21.2761 15.2239 21.5 15.5 21.5H16.5C16.7761 21.5 17 21.2761 17 21V19.5C17 19.2239 16.7761 19 16.5 19H15.5C15.2239 19 15 19.2239 15 19.5Z" stroke="#26355D"/>
<path d="M19.5 21V19.5C19.5 19.2239 19.7239 19 20 19H21C21.2761 19 21.5 19.2239 21.5 19.5V21C21.5 21.2761 21.2761 21.5 21 21.5H20C19.7239 21.5 19.5 21.2761 19.5 21Z" stroke="#26355D"/>
<path d="M7 1V4.5C7 4.77614 7.22386 5 7.5 5H8C8.27614 5 8.5 4.77614 8.5 4.5V1C8.5 0.723858 8.27614 0.5 8 0.5H7.5C7.22386 0.5 7 0.723858 7 1Z" stroke="#26355D"/>
<path d="M19 0.5H18.5C18.2239 0.5 18 0.723858 18 1V4.5C18 4.77614 18.2239 5 18.5 5H19C19.2761 5 19.5 4.77614 19.5 4.5V1C19.5 0.723858 19.2761 0.5 19 0.5Z" stroke="#26355D"/>
<path d="M1.5 8.5V23.5C1.5 24.6046 2.39543 25.5 3.5 25.5H23.5C24.6046 25.5 25.5 24.6046 25.5 23.5V8.5M1.5 8.5V5C1.5 3.89543 2.39543 3 3.5 3H23.5C24.6046 3 25.5 3.89543 25.5 5V8.5M1.5 8.5H25.5" stroke="#26355D" stroke-width="2"/>
</svg>
