<svg width="16" height="24" viewBox="0 0 16 24" fill="none" xmlns="http://www.w3.org/2000/svg">
<path d="M5.15212 19.2797C5.15212 19.2797 1.53801 19.097 1.0448 20.5187C0.614964 21.7577 3.38917 22.6302 4.62684 22.7386C8.16115 23.0484 7.67339 22.9968 11.4565 22.9968C12.937 22.9968 14.8952 22.8419 14.6085 20.9317C14.3705 19.3456 10.8834 19.2797 10.8834 19.2797M8.01771 20.5187C8.01771 20.5187 4.13522 16.3507 2.62094 13.0845C1.76415 11.2365 1.03146 10.1954 1.0448 8.12835C1.05789 6.099 1.49291 4.76884 2.76415 3.27546C4.12083 1.68169 5.4418 1.06573 7.44459 1.00389C9.58432 0.937829 11.4699 1.71347 13.0492 3.27546C14.5274 4.73749 14.8808 5.96578 14.9906 8.12835C15.0962 10.2068 14.2934 11.2323 13.4146 13.0845C11.8826 16.3136 8.01771 20.5187 8.01771 20.5187ZM8.01771 11.7938C6.96489 11.8186 6.22167 11.5204 5.53429 10.658C4.91041 9.87534 4.71862 9.15592 4.81789 8.12835C4.91761 7.09609 5.24008 6.42252 6.01188 5.80515C6.66675 5.28131 7.2031 5.19626 8.01771 5.18563C8.86831 5.17453 9.42199 5.52105 10.0715 6.11491C10.767 6.75092 10.8356 7.14743 10.9789 8.07671C11.1381 9.10923 11.0766 9.67713 10.3103 10.658C9.66385 11.4854 9.01931 11.7703 8.01771 11.7938Z" stroke="#26355D"/>
</svg>
