<svg width="116" height="104" viewBox="0 0 116 104" fill="none" xmlns="http://www.w3.org/2000/svg">
<path d="M40.8157 74.8421L46.3906 76.5146L53.6379 73.5413L55.3103 68.3381V60.7192L51.9654 55.516L46.3906 52.9144L39.3291 53.8436L33.1968 55.516L31.896 60.7192L33.1968 70.1964L40.8157 74.8421Z" fill="#FF5722"/>
<path d="M33.0605 64.8878L39.3454 75.7435H46.773L53.0578 72.3154L57.6287 64.8878L53.0578 54.6035L43.9162 51.1754L33.0605 54.6035V64.8878Z" fill="#FF5722"/>
<path d="M115.335 83.3237C115.335 87.5739 114.579 91.2356 113.066 94.3088C111.619 97.3166 109.514 99.6378 106.752 101.273C103.989 102.842 100.701 103.626 96.8856 103.626C92.2157 103.626 88.1048 102.449 84.553 100.096C81.0012 97.6762 78.0413 94.4722 75.6735 90.4836C73.3714 86.6258 71.6612 82.1794 70.5431 77.1446C69.3591 72.1098 68.7672 66.8788 68.7672 61.4516C68.7672 56.2206 69.2276 51.48 70.1484 47.2299C71.0035 42.9143 72.2203 39.1218 73.7989 35.8525C75.5748 32.1254 77.7125 29.0195 80.2119 26.5348C82.6455 24.05 85.2765 22.2192 88.1048 21.0422C90.9988 19.7999 93.9258 19.1787 96.8856 19.1787C102.608 19.1787 107.113 20.9768 110.402 24.5732C113.691 28.1041 115.335 33.237 115.335 39.9719C115.335 44.549 114.678 49.028 113.362 53.409C112.112 57.7245 110.205 61.9093 107.64 65.9633C105.995 69.3635 103.759 72.6655 100.931 75.8695C98.1024 79.0735 94.9124 82.0486 91.3606 84.7949C87.8746 87.4758 84.3228 89.7643 80.7052 91.6606C75.2459 94.6684 69.7538 96.9896 64.2288 98.6243C58.638 100.194 52.6525 100.978 46.2724 100.978C40.5501 100.978 34.9593 100.03 29.5 98.1339C24.0408 96.1723 19.1406 93.2299 14.7995 89.3066C10.4584 85.318 7.00529 80.3159 4.4401 74.3002C1.80914 68.2192 0.493652 61.0593 0.493652 52.8205C0.493652 44.7778 0.493654 38.9911 3.84814 32.1254C10.8892 17.7144 16.3053 16.1015 27.8228 10.3409C32.3612 9.49083 45.9107 6.62431 51.8961 6.62431H83.665C83.665 6.62431 36.9572 24.5979 29.9933 16.1015C26.1379 11.3976 16.5313 20.7099 11.6406 27.6136C5.03839 36.9333 6.25159 51.5454 6.25159 51.5454C6.25159 57.038 8.74831 63.4786 10.4584 68.3173C12.1028 73.0906 14.5693 77.308 17.858 80.9697C21.1467 84.566 25.1918 87.4104 29.9933 89.5028C34.7949 91.5298 40.3528 92.5433 46.6671 92.5433C50.7451 92.5433 54.4942 92.2491 57.9145 91.6606C61.2689 91.0721 64.4919 90.1894 67.5833 89.0124C70.6746 87.8354 73.8318 86.4296 77.0547 84.7949C80.2777 83.291 83.5664 81.264 86.9208 78.7139C90.2753 76.1638 93.4325 73.1886 96.3923 69.7885C99.3522 66.3884 101.884 62.7267 103.989 58.8034C105.568 55.9918 106.653 53.1474 107.245 50.2704C107.903 47.3279 108.232 44.1894 108.232 40.8546C108.232 36.0159 107.114 32.6158 104.877 30.6542C102.707 28.6272 99.8784 27.6136 96.3923 27.6136C93.0378 27.6136 89.9793 28.6272 87.2168 30.6542C84.4543 32.6812 82.2509 35.2967 80.6065 38.5006C78.9622 41.6392 77.7782 45.2029 77.0547 49.1915C76.2654 53.1147 75.8708 57.136 75.8708 61.2555C75.8708 67.0095 76.4628 72.0444 77.6467 76.3599C78.7649 80.6101 80.2448 84.1083 82.0864 86.8546C83.9939 89.7317 86.1644 91.8567 88.5981 93.2299C91.0975 94.603 93.6627 95.2896 96.2936 95.2896C99.9112 95.2896 102.805 94.2761 104.976 92.2491C107.146 90.1567 108.232 86.7892 108.232 82.1467C108.232 79.2697 108.001 76.5234 107.541 73.9079C107.146 71.2924 106.226 68.7096 104.779 66.1595C102.937 62.1055 100.437 58.3784 97.2803 54.9783C94.1231 51.5781 90.6371 48.6684 86.8222 46.2491C83.0073 43.7643 79.2253 41.9989 75.4762 40.9527C72.7794 40.0373 70.0827 39.3834 67.3859 38.9911C64.6234 38.5333 61.828 38.3045 58.9997 38.3045C54.264 38.3045 50.2847 38.9584 47.0617 40.2661C43.773 41.5085 41.1749 43.1431 39.2675 45.1702C37.36 47.1972 36.0446 49.3223 35.321 51.5454L34.8277 56.4495C34.762 56.9072 34.7291 57.463 34.7291 58.1169C34.6633 58.7053 34.6304 59.2938 34.6304 59.8823C34.6304 62.2363 34.9922 64.3614 35.7157 66.2576C36.3734 68.0884 37.4258 69.5596 38.8729 70.6712C40.3199 71.7828 42.1287 72.3386 44.2992 72.3386C46.7329 72.3386 48.7719 71.6194 50.4162 70.1808C52.0606 68.6769 52.8827 66.5845 52.8827 63.9036C52.8827 61.4843 52.1263 59.5227 50.6135 58.0188C49.0349 56.5149 46.8315 55.7629 44.0032 55.7629C41.8985 55.7629 39.9581 56.1552 38.1822 56.9399C36.4063 57.7245 34.6304 58.9669 32.8545 60.667L33.3478 52.8205C34.2687 51.9051 35.3539 51.1204 36.6036 50.4665C37.7876 49.7473 39.1031 49.1915 40.5501 48.7992C41.9314 48.3414 43.4113 48.1126 44.9898 48.1126C47.8181 48.1126 50.3504 48.7338 52.5868 49.9761C54.7573 51.2185 56.4674 53.0166 57.7171 55.3706C58.9668 57.7245 59.5917 60.6343 59.5917 64.0998C59.5917 67.0422 58.9668 69.7231 57.7171 72.1425C56.4674 74.5618 54.6915 76.4907 52.3894 77.9292C50.0873 79.3678 47.4235 80.087 44.3979 80.087C40.6488 80.087 37.5574 79.1389 35.1237 77.2427C32.6243 75.281 30.7826 72.6329 29.5987 69.2981C28.4148 65.9633 27.8228 62.2363 27.8228 58.1169C27.8228 51.8397 29.1054 46.6087 31.6706 42.4239C34.2358 38.2391 37.8205 35.1005 42.4247 33.0081C47.0288 30.8503 52.4223 29.7714 58.6051 29.7714C61.4992 29.7714 64.8865 30.0657 68.7672 30.6542C72.6479 31.2427 76.4628 32.3542 80.2119 33.9889C84.2241 35.4275 87.9732 37.3237 91.4593 39.6776C94.9453 41.9662 98.1024 44.6144 100.931 47.6222C103.759 50.63 106.193 53.8994 108.232 57.4303C110.468 61.6151 112.211 65.8653 113.461 70.1808C114.71 74.4964 115.335 78.8773 115.335 83.3237Z" fill="#26355D"/>
<path d="M81.3398 88.8846C81.3398 92.5983 40.4882 85.1708 35.6317 77.1718L49.9155 75.4578C52.7723 81.7427 72.1982 86.0278 87.0533 82.5998L81.3398 88.8846Z" fill="#26355D"/>
<circle cx="98.6082" cy="6.64334" r="6.31815" fill="#FF5722"/>
</svg>
