<svg width="73" height="66" viewBox="0 0 73 66" fill="none" xmlns="http://www.w3.org/2000/svg">
<path d="M28.2446 43.2617L30.9054 44.0599L34.3644 42.6408L35.1626 40.1574V36.521L33.5662 34.0376L30.9054 32.7959L27.535 33.2394L24.6082 34.0376L23.9873 36.521L24.6082 41.0443L28.2446 43.2617Z" fill="#FF5722"/>
<path d="M60.0751 2.29763C56.7531 0.22142 52.1854 0.636664 48.4482 3.54336L49.694 9.77204L52.6007 12.6787L58.8294 14.755L63.8123 11.8483C65.4733 7.69582 61.7361 3.33574 60.0751 2.29763Z" fill="#FFEB3B" stroke="#FFEB3B"/>
<mask id="path-3-outside-1_799_43" maskUnits="userSpaceOnUse" x="-1" y="1" width="74" height="65" fill="black">
<rect fill="white" x="-1" y="1" width="74" height="65"/>
<path d="M63.8123 47.3098C63.8123 49.3383 63.4513 51.086 62.7292 52.5528C62.0386 53.9884 61.034 55.0963 59.7155 55.8765C58.397 56.6255 56.8273 57 55.0065 57C52.7776 57 50.8156 56.4382 49.1203 55.3147C47.4251 54.16 46.0124 52.6308 44.8823 50.7271C44.2735 49.707 43.7515 48.6006 43.3162 47.4081C42.9658 46.4481 42.6716 45.4323 42.4336 44.3606C41.8685 41.9575 41.586 39.4608 41.586 36.8705C41.586 34.3739 41.8057 32.1113 42.2453 30.0827C42.6534 28.0229 43.2341 26.2129 43.9876 24.6524C44.8352 22.8736 45.8555 21.3912 47.0484 20.2052C48.2099 19.0193 49.4657 18.1455 50.8156 17.5837C52.1968 16.9908 53.5938 16.6943 55.0065 16.6943C57.7377 16.6943 59.8881 17.5525 61.4578 19.269C63.0275 20.9542 63.8123 23.4041 63.8123 26.6186C63.8123 28.8032 63.4984 30.9409 62.8705 33.0319C62.274 35.0917 61.3636 37.089 60.1393 39.0239C59.3545 40.6468 58.2871 42.2228 56.9372 43.752C55.5873 45.2812 54.0647 46.7012 52.3695 48.012C50.7057 49.2915 49.0105 50.3838 47.2838 51.2889C44.6782 52.7244 42.0569 53.8323 39.4199 54.6126C36.7515 55.3616 33.8947 55.7361 30.8496 55.7361C28.1184 55.7361 25.45 55.2835 22.8443 54.3785C20.2387 53.4422 17.8999 52.0379 15.828 50.1653C13.756 48.2616 12.1079 45.8742 10.8836 43.003C9.62786 40.1006 9 36.6833 9 32.751C9 28.9124 9 26.1504 10.601 22.8736C13.9616 15.9954 16.5467 15.2256 22.0438 12.4761C24.2099 12.0704 30.6769 10.7023 33.5337 10.7023H48.6965C48.6965 10.7023 26.4035 19.2808 23.0798 15.2256C21.2396 12.9805 16.6546 17.4251 14.3203 20.7202C11.1691 25.1683 11.7482 32.1425 11.7482 32.1425C11.7482 34.764 12.9398 37.838 13.756 40.1474C14.5409 42.4257 15.7181 44.4386 17.2878 46.1863C18.8574 47.9027 20.7881 49.2603 23.0798 50.259C25.3715 51.2264 28.0242 51.7102 31.0379 51.7102C32.9843 51.7102 34.7737 51.5697 36.4061 51.2889C38.0072 51.008 39.4513 51.2889 40.9267 50.7271C42.3394 50.5573 41.3812 50.3406 41.586 50.259C42.8653 49.7487 44.2155 48.6845 45.5415 48.012C47.0798 47.2942 48.6494 46.3267 50.2505 45.1096C51.8515 43.8924 53.3584 42.4725 54.7711 40.8496C56.1838 39.2268 57.3924 37.4791 58.397 35.6066C59.1504 34.2646 59.6684 32.9071 59.9509 31.5339C60.2649 30.1295 60.4218 28.6315 60.4218 27.0399C60.4218 24.7305 59.8882 23.1076 58.8208 22.1714C57.7848 21.2039 56.4349 20.7202 54.7711 20.7202C53.17 20.7202 51.7103 21.2039 50.3917 22.1714C49.0732 23.1388 48.0216 24.3872 47.2367 25.9164C46.4519 27.4144 45.8868 29.1152 45.5415 31.019C45.1648 32.8915 44.9764 34.8108 44.9764 36.7769C44.9764 39.5233 45.259 41.9263 45.8241 43.9861C46.3577 46.0146 47.0641 47.6843 47.9431 48.995C48.8535 50.3682 49.8895 51.3825 51.051 52.0379C52.2439 52.6932 53.4683 53.0209 54.724 53.0209C56.4506 53.0209 57.8319 52.5372 58.8679 51.5697C59.9038 50.5711 60.4218 48.9638 60.4218 46.748C60.4218 45.3749 60.312 44.0641 60.0922 42.8158C59.9038 41.5674 59.4643 40.3347 58.7737 39.1176C57.8947 37.1826 56.7018 35.4037 55.1949 33.7809C53.688 32.1581 52.0242 30.7693 50.2034 29.6146C48.3826 28.4287 46.5775 27.586 44.7881 27.0867C43.501 26.6498 42.2139 26.3377 40.9267 26.1504C39.6082 25.932 38.274 25.8228 36.9241 25.8228C34.6638 25.8228 32.7645 26.1348 31.2263 26.759C29.6566 27.352 28.4166 28.1322 27.5062 29.0996C26.5958 30.0671 25.9679 31.0814 25.6226 32.1425L25.3872 34.4831C25.3558 34.7016 25.3401 34.9668 25.3401 35.2789C25.3087 35.5598 25.293 35.8407 25.293 36.1215C25.293 37.2451 25.4657 38.2593 25.811 39.1644C26.1249 40.0382 26.6272 40.7404 27.3179 41.2709C28.0085 41.8015 28.8718 42.0668 29.9078 42.0668C31.0693 42.0668 32.0425 41.7235 32.8273 41.0369C33.6122 40.3191 34.0046 39.3204 34.0046 38.0409C34.0046 36.8862 33.6436 35.9499 32.9215 35.2321C32.1681 34.5143 31.1164 34.1554 29.7665 34.1554C28.7619 34.1554 27.8358 34.3427 26.9882 34.7172C26.1406 35.0917 25.293 35.6846 24.4454 36.496L24.6808 32.751C25.1203 32.3141 25.6383 31.9396 26.2348 31.6275C26.7999 31.2842 27.4277 31.019 28.1184 30.8317C28.7776 30.6133 29.484 30.504 30.2374 30.504C31.5873 30.504 32.7959 30.8005 33.8633 31.3935C34.8993 31.9864 35.7155 32.8447 36.312 33.9682C36.9084 35.0917 37.2067 36.4804 37.2067 38.1345C37.2067 39.5389 36.9084 40.8184 36.312 41.9731C35.7155 43.1278 34.8679 44.0485 33.7691 44.7351C33.6803 44.7906 33.5904 44.8438 33.4993 44.8948C32.5718 45.4144 31.2819 45.4121 29.7621 45.4831C29.6267 45.4894 29.9007 45.4831 29.7621 45.4831C27.9727 45.4831 26.69 45.3124 25.5284 44.4074C24.3355 43.4711 23.4565 42.2072 22.8914 40.6156C22.3264 39.0239 22.0438 37.245 22.0438 35.2789C22.0438 32.2829 22.656 29.7862 23.8803 27.7889C25.1046 25.7915 26.8156 24.2935 29.0131 23.2949C31.2106 22.265 33.7848 21.75 36.7358 21.75C38.1171 21.75 39.7338 21.8905 41.586 22.1714C43.4382 22.4522 45.259 22.9828 47.0484 23.763C48.9634 24.4496 50.7528 25.3546 52.4166 26.4781C54.0804 27.5704 55.5873 28.8344 56.9372 30.27C58.2871 31.7055 59.4486 33.266 60.4218 34.9512C61.4892 36.9486 62.3211 38.9771 62.9176 41.0369C63.514 43.0966 63.8123 45.1876 63.8123 47.3098Z"/>
</mask>
<path d="M63.8123 47.3098C63.8123 49.3383 63.4513 51.086 62.7292 52.5528C62.0386 53.9884 61.034 55.0963 59.7155 55.8765C58.397 56.6255 56.8273 57 55.0065 57C52.7776 57 50.8156 56.4382 49.1203 55.3147C47.4251 54.16 46.0124 52.6308 44.8823 50.7271C44.2735 49.707 43.7515 48.6006 43.3162 47.4081C42.9658 46.4481 42.6716 45.4323 42.4336 44.3606C41.8685 41.9575 41.586 39.4608 41.586 36.8705C41.586 34.3739 41.8057 32.1113 42.2453 30.0827C42.6534 28.0229 43.2341 26.2129 43.9876 24.6524C44.8352 22.8736 45.8555 21.3912 47.0484 20.2052C48.2099 19.0193 49.4657 18.1455 50.8156 17.5837C52.1968 16.9908 53.5938 16.6943 55.0065 16.6943C57.7377 16.6943 59.8881 17.5525 61.4578 19.269C63.0275 20.9542 63.8123 23.4041 63.8123 26.6186C63.8123 28.8032 63.4984 30.9409 62.8705 33.0319C62.274 35.0917 61.3636 37.089 60.1393 39.0239C59.3545 40.6468 58.2871 42.2228 56.9372 43.752C55.5873 45.2812 54.0647 46.7012 52.3695 48.012C50.7057 49.2915 49.0105 50.3838 47.2838 51.2889C44.6782 52.7244 42.0569 53.8323 39.4199 54.6126C36.7515 55.3616 33.8947 55.7361 30.8496 55.7361C28.1184 55.7361 25.45 55.2835 22.8443 54.3785C20.2387 53.4422 17.8999 52.0379 15.828 50.1653C13.756 48.2616 12.1079 45.8742 10.8836 43.003C9.62786 40.1006 9 36.6833 9 32.751C9 28.9124 9 26.1504 10.601 22.8736C13.9616 15.9954 16.5467 15.2256 22.0438 12.4761C24.2099 12.0704 30.6769 10.7023 33.5337 10.7023H48.6965C48.6965 10.7023 26.4035 19.2808 23.0798 15.2256C21.2396 12.9805 16.6546 17.4251 14.3203 20.7202C11.1691 25.1683 11.7482 32.1425 11.7482 32.1425C11.7482 34.764 12.9398 37.838 13.756 40.1474C14.5409 42.4257 15.7181 44.4386 17.2878 46.1863C18.8574 47.9027 20.7881 49.2603 23.0798 50.259C25.3715 51.2264 28.0242 51.7102 31.0379 51.7102C32.9843 51.7102 34.7737 51.5697 36.4061 51.2889C38.0072 51.008 39.4513 51.2889 40.9267 50.7271C42.3394 50.5573 41.3812 50.3406 41.586 50.259C42.8653 49.7487 44.2155 48.6845 45.5415 48.012C47.0798 47.2942 48.6494 46.3267 50.2505 45.1096C51.8515 43.8924 53.3584 42.4725 54.7711 40.8496C56.1838 39.2268 57.3924 37.4791 58.397 35.6066C59.1504 34.2646 59.6684 32.9071 59.9509 31.5339C60.2649 30.1295 60.4218 28.6315 60.4218 27.0399C60.4218 24.7305 59.8882 23.1076 58.8208 22.1714C57.7848 21.2039 56.4349 20.7202 54.7711 20.7202C53.17 20.7202 51.7103 21.2039 50.3917 22.1714C49.0732 23.1388 48.0216 24.3872 47.2367 25.9164C46.4519 27.4144 45.8868 29.1152 45.5415 31.019C45.1648 32.8915 44.9764 34.8108 44.9764 36.7769C44.9764 39.5233 45.259 41.9263 45.8241 43.9861C46.3577 46.0146 47.0641 47.6843 47.9431 48.995C48.8535 50.3682 49.8895 51.3825 51.051 52.0379C52.2439 52.6932 53.4683 53.0209 54.724 53.0209C56.4506 53.0209 57.8319 52.5372 58.8679 51.5697C59.9038 50.5711 60.4218 48.9638 60.4218 46.748C60.4218 45.3749 60.312 44.0641 60.0922 42.8158C59.9038 41.5674 59.4643 40.3347 58.7737 39.1176C57.8947 37.1826 56.7018 35.4037 55.1949 33.7809C53.688 32.1581 52.0242 30.7693 50.2034 29.6146C48.3826 28.4287 46.5775 27.586 44.7881 27.0867C43.501 26.6498 42.2139 26.3377 40.9267 26.1504C39.6082 25.932 38.274 25.8228 36.9241 25.8228C34.6638 25.8228 32.7645 26.1348 31.2263 26.759C29.6566 27.352 28.4166 28.1322 27.5062 29.0996C26.5958 30.0671 25.9679 31.0814 25.6226 32.1425L25.3872 34.4831C25.3558 34.7016 25.3401 34.9668 25.3401 35.2789C25.3087 35.5598 25.293 35.8407 25.293 36.1215C25.293 37.2451 25.4657 38.2593 25.811 39.1644C26.1249 40.0382 26.6272 40.7404 27.3179 41.2709C28.0085 41.8015 28.8718 42.0668 29.9078 42.0668C31.0693 42.0668 32.0425 41.7235 32.8273 41.0369C33.6122 40.3191 34.0046 39.3204 34.0046 38.0409C34.0046 36.8862 33.6436 35.9499 32.9215 35.2321C32.1681 34.5143 31.1164 34.1554 29.7665 34.1554C28.7619 34.1554 27.8358 34.3427 26.9882 34.7172C26.1406 35.0917 25.293 35.6846 24.4454 36.496L24.6808 32.751C25.1203 32.3141 25.6383 31.9396 26.2348 31.6275C26.7999 31.2842 27.4277 31.019 28.1184 30.8317C28.7776 30.6133 29.484 30.504 30.2374 30.504C31.5873 30.504 32.7959 30.8005 33.8633 31.3935C34.8993 31.9864 35.7155 32.8447 36.312 33.9682C36.9084 35.0917 37.2067 36.4804 37.2067 38.1345C37.2067 39.5389 36.9084 40.8184 36.312 41.9731C35.7155 43.1278 34.8679 44.0485 33.7691 44.7351C33.6803 44.7906 33.5904 44.8438 33.4993 44.8948C32.5718 45.4144 31.2819 45.4121 29.7621 45.4831C29.6267 45.4894 29.9007 45.4831 29.7621 45.4831C27.9727 45.4831 26.69 45.3124 25.5284 44.4074C24.3355 43.4711 23.4565 42.2072 22.8914 40.6156C22.3264 39.0239 22.0438 37.245 22.0438 35.2789C22.0438 32.2829 22.656 29.7862 23.8803 27.7889C25.1046 25.7915 26.8156 24.2935 29.0131 23.2949C31.2106 22.265 33.7848 21.75 36.7358 21.75C38.1171 21.75 39.7338 21.8905 41.586 22.1714C43.4382 22.4522 45.259 22.9828 47.0484 23.763C48.9634 24.4496 50.7528 25.3546 52.4166 26.4781C54.0804 27.5704 55.5873 28.8344 56.9372 30.27C58.2871 31.7055 59.4486 33.266 60.4218 34.9512C61.4892 36.9486 62.3211 38.9771 62.9176 41.0369C63.514 43.0966 63.8123 45.1876 63.8123 47.3098Z" fill="#26355D"/>
<path d="M29.7621 45.4831L29.0625 41.0378L15.336 43.1983L27.7231 49.4946L29.7621 45.4831ZM33.4993 44.8948L36.4784 41.5222L34.8914 40.1203L32.7997 40.4496L33.4993 44.8948ZM43.3162 47.4081L44.0026 42.9608L43.7587 42.9231L43.512 42.9124L43.3162 47.4081ZM41.586 50.259L41.2123 54.7434L41.6026 54.776L41.9927 54.7406L41.586 50.259ZM43.8804 50.0507L44.2872 54.5323L44.8077 54.4851L45.3035 54.3198L43.8804 50.0507ZM45.1262 49.6355L46.5492 53.9046L51.0768 52.3954L49.3043 47.9642L45.1262 49.6355ZM44.2957 47.5593L48.4738 45.888L47.5201 43.5036L44.9821 43.1119L44.2957 47.5593ZM33.4993 44.8948L30.5202 48.2675C32.4994 50.0158 35.2753 50.7936 37.2295 51.1997C39.3911 51.6489 41.5838 51.8369 43.1204 51.9038L43.3162 47.4081L43.512 42.9124C42.2719 42.8584 40.5942 42.7067 39.0607 42.388C38.2967 42.2292 37.6514 42.0458 37.153 41.8515C36.6233 41.645 36.4548 41.5013 36.4784 41.5222L33.4993 44.8948ZM33.4993 44.8948L32.7997 40.4496L29.0625 41.0378L29.7621 45.4831L30.4618 49.9283L34.199 49.3401L33.4993 44.8948ZM29.7621 45.4831L27.7231 49.4946C30.4179 50.8643 35.0628 54.231 41.2123 54.7434L41.586 50.259L41.9597 45.7745C38.1433 45.4565 36.2039 43.7094 31.8012 41.4715L29.7621 45.4831ZM41.586 50.259L41.9927 54.7406L44.2872 54.5323L43.8804 50.0507L43.4737 45.5692L41.1793 45.7774L41.586 50.259ZM43.8804 50.0507L45.3035 54.3198L46.5492 53.9046L45.1262 49.6355L43.7032 45.3664L42.4574 45.7817L43.8804 50.0507ZM45.1262 49.6355L49.3043 47.9642L48.4738 45.888L44.2957 47.5593L40.1175 49.2305L40.948 51.3068L45.1262 49.6355ZM44.2957 47.5593L44.9821 43.1119L44.0026 42.9608L43.3162 47.4081L42.6298 51.8554L43.6093 52.0066L44.2957 47.5593ZM62.7292 52.5528L54.6545 48.578L54.6366 48.6144L54.619 48.651L62.7292 52.5528ZM59.7155 55.8765L64.1609 63.702L64.2302 63.6626L64.2988 63.622L59.7155 55.8765ZM49.1203 55.3147L44.0537 62.7531L44.1008 62.7852L44.1484 62.8167L49.1203 55.3147ZM44.8823 50.7271L52.6213 46.1328L52.6161 46.124L52.6108 46.1152L44.8823 50.7271ZM42.4336 44.3606L51.2195 42.4094L51.2074 42.3548L51.1946 42.3004L42.4336 44.3606ZM42.2453 30.0827L51.0412 31.9884L51.0581 31.9103L51.0736 31.8319L42.2453 30.0827ZM43.9876 24.6524L52.0923 28.5657L52.1024 28.5448L52.1124 28.5238L43.9876 24.6524ZM47.0484 20.2052L53.3936 26.5879L53.4361 26.5456L53.4781 26.5028L47.0484 20.2052ZM50.8156 17.5837L54.2734 25.893L54.3197 25.8737L54.3658 25.8539L50.8156 17.5837ZM61.4578 19.269L54.8162 25.3426L54.8439 25.3729L54.872 25.403L61.4578 19.269ZM62.8705 33.0319L54.2507 30.4436L54.238 30.486L54.2257 30.5285L62.8705 33.0319ZM60.1393 39.0239L52.5339 34.2116L52.2601 34.6445L52.037 35.1056L60.1393 39.0239ZM56.9372 43.752L63.6844 49.7081L63.6844 49.7081L56.9372 43.752ZM52.3695 48.012L57.856 55.1463L57.8654 55.1391L57.8747 55.1319L52.3695 48.012ZM47.2838 51.2889L43.1055 43.3176L43.0227 43.361L42.9408 43.4061L47.2838 51.2889ZM39.4199 54.6126L41.8521 63.2777L41.9128 63.2606L41.9733 63.2427L39.4199 54.6126ZM22.8443 54.3785L19.801 62.8483L19.8461 62.8645L19.8913 62.8802L22.8443 54.3785ZM15.828 50.1653L9.73877 56.7927L9.76603 56.8177L9.79351 56.8425L15.828 50.1653ZM10.8836 43.003L19.1623 39.4728L19.153 39.451L19.1436 39.4293L10.8836 43.003ZM10.601 22.8736L2.51463 18.9226H2.51463L10.601 22.8736ZM22.0438 12.4761L20.3869 3.62994L19.1465 3.86227L18.0178 4.42681L22.0438 12.4761ZM48.6965 10.7023L51.9287 19.1018L48.6965 1.70226V10.7023ZM23.0798 15.2256L16.1191 20.9308H16.1191L23.0798 15.2256ZM14.3203 20.7202L21.6642 25.9228H21.6642L14.3203 20.7202ZM11.7482 32.1425H20.7482V31.7695L20.7173 31.3978L11.7482 32.1425ZM13.756 40.1474L22.2653 37.2161L22.2536 37.1822L22.2417 37.1484L13.756 40.1474ZM17.2878 46.1863L10.5919 52.2001L10.6189 52.2301L10.6461 52.2599L17.2878 46.1863ZM23.0798 50.259L19.4843 58.5096L19.5318 58.5303L19.5795 58.5504L23.0798 50.259ZM36.4061 51.2889L37.9323 60.1585L37.9468 60.156L37.9613 60.1535L36.4061 51.2889ZM40.9267 50.7271L39.8528 41.7914L38.7564 41.9232L37.7244 42.3161L40.9267 50.7271ZM45.5415 48.012L41.7358 39.8562L41.6021 39.9186L41.4704 39.9854L45.5415 48.012ZM50.2505 45.1096L44.8038 37.9448H44.8038L50.2505 45.1096ZM54.7711 40.8496L47.9828 34.9404L47.9828 34.9404L54.7711 40.8496ZM58.397 35.6066L50.5493 31.2006L50.507 31.2758L50.4662 31.3518L58.397 35.6066ZM59.9509 31.5339L51.1677 29.5705L51.151 29.6452L51.1356 29.7201L59.9509 31.5339ZM58.8208 22.1714L52.678 28.7491L52.7805 28.8448L52.886 28.9373L58.8208 22.1714ZM50.3917 22.1714L55.716 29.4275L50.3917 22.1714ZM47.2367 25.9164L55.2089 30.0931L55.2265 30.0595L55.2438 30.0258L47.2367 25.9164ZM45.5415 31.019L54.3647 32.794L54.3817 32.7098L54.397 32.6253L45.5415 31.019ZM45.8241 43.9861L54.5279 41.6962L54.5159 41.6505L54.5034 41.605L45.8241 43.9861ZM47.9431 48.995L55.4442 44.0218L55.4311 44.0021L55.4179 43.9823L47.9431 48.995ZM51.051 52.0379L46.6284 59.8762L46.6728 59.9013L46.7175 59.9259L51.051 52.0379ZM58.8679 51.5697L65.0106 58.1475L65.0628 58.0988L65.1141 58.0493L58.8679 51.5697ZM60.0922 42.8158L51.1929 44.1585L51.2094 44.2675L51.2285 44.3761L60.0922 42.8158ZM58.7737 39.1176L50.5796 42.84L50.7467 43.2079L50.9461 43.5592L58.7737 39.1176ZM55.1949 33.7809L61.7901 27.657L55.1949 33.7809ZM50.2034 29.6146L45.2915 37.156L45.3372 37.1858L45.3833 37.215L50.2034 29.6146ZM44.7881 27.0867L41.8951 35.6091L42.1301 35.6888L42.3691 35.7555L44.7881 27.0867ZM40.9267 26.1504L39.4556 35.0294L39.5432 35.0439L39.6311 35.0567L40.9267 26.1504ZM31.2263 26.759L34.4068 35.1783L34.509 35.1397L34.6102 35.0986L31.2263 26.759ZM27.5062 29.0996L34.0605 35.2674L34.0605 35.2674L27.5062 29.0996ZM25.6226 32.1425L17.0644 29.3573L16.7647 30.2781L16.6678 31.2417L25.6226 32.1425ZM25.3872 34.4831L34.2957 35.7632L34.3229 35.5741L34.342 35.3839L25.3872 34.4831ZM25.3401 35.2789L34.2844 36.2786L34.3401 35.7803V35.2789H25.3401ZM25.811 39.1644L34.281 36.1215L34.2511 36.0384L34.2197 35.956L25.811 39.1644ZM27.3179 41.2709L21.8352 48.4082L21.8352 48.4082L27.3179 41.2709ZM32.8273 41.0369L38.7532 47.8107L38.828 47.7452L38.9014 47.6781L32.8273 41.0369ZM32.9215 35.2321L39.2667 28.8494L39.1988 28.7819L39.1295 28.7159L32.9215 35.2321ZM26.9882 34.7172L23.351 26.4849L23.351 26.4849L26.9882 34.7172ZM24.4454 36.496L15.4631 35.9313L14.0167 58.9386L30.669 42.9973L24.4454 36.496ZM24.6808 32.751L18.3357 26.3683L15.9129 28.7768L15.6986 32.1863L24.6808 32.751ZM26.2348 31.6275L30.4072 39.6019L30.662 39.4686L30.9077 39.3193L26.2348 31.6275ZM28.1184 30.8317L30.4735 39.5181L30.7134 39.4531L30.9493 39.3749L28.1184 30.8317ZM33.8633 31.3935L38.3341 23.5825L38.2842 23.5539L38.234 23.526L33.8633 31.3935ZM33.7691 44.7351L28.9998 37.1027L28.9998 37.1027L33.7691 44.7351ZM25.5284 44.4074L19.9719 51.4873L19.9843 51.497L19.9968 51.5067L25.5284 44.4074ZM23.8803 27.7889L31.5535 32.4924L31.5535 32.4924L23.8803 27.7889ZM29.0131 23.2949L32.7367 31.4884L32.7846 31.4667L32.8324 31.4443L29.0131 23.2949ZM47.0484 23.763L43.4513 32.0129L43.7274 32.1333L44.0109 32.2349L47.0484 23.763ZM52.4166 26.4781L47.3801 33.9369L47.4285 33.9696L47.4774 34.0017L52.4166 26.4781ZM56.9372 30.27L63.4938 24.1047L56.9372 30.27ZM60.4218 34.9512L68.3595 30.7094L68.2897 30.5788L68.2157 30.4505L60.4218 34.9512ZM33.4993 44.8948L37.8976 52.7469L33.4993 44.8948ZM43.3162 47.4081L51.7706 44.3222L43.3162 47.4081ZM41.586 50.259L44.92 58.6187L41.586 50.259ZM63.8123 47.3098H54.8123C54.8123 48.2847 54.6391 48.6094 54.6545 48.578L62.7292 52.5528L70.8039 56.5276C72.2635 53.5626 72.8123 50.392 72.8123 47.3098H63.8123ZM62.7292 52.5528L54.619 48.651C54.6246 48.6394 54.6745 48.5429 54.7906 48.4149C54.9086 48.2847 55.0347 48.1886 55.1322 48.131L59.7155 55.8765L64.2988 63.622C67.2098 61.8995 69.4109 59.424 70.8395 56.4546L62.7292 52.5528ZM59.7155 55.8765L55.2701 48.051C55.3945 47.9803 55.473 47.9619 55.4607 47.9648C55.4409 47.9696 55.3018 48 55.0065 48V57V66C58.0732 66 61.2391 65.3618 64.1609 63.702L59.7155 55.8765ZM55.0065 57V48C54.3693 48 54.1725 47.866 54.0923 47.8127L49.1203 55.3147L44.1484 62.8167C47.4586 65.0105 51.186 66 55.0065 66V57ZM49.1203 55.3147L54.187 47.8764C53.6643 47.5204 53.1336 46.9957 52.6213 46.1328L44.8823 50.7271L37.1432 55.3214C38.8913 58.2659 41.1859 60.7997 44.0537 62.7531L49.1203 55.3147ZM42.4336 44.3606L51.1946 42.3004C50.796 40.605 50.586 38.8013 50.586 36.8705H41.586H32.586C32.586 40.1203 32.9411 43.31 33.6726 46.4207L42.4336 44.3606ZM41.586 36.8705H50.586C50.586 34.8901 50.7614 33.2798 51.0412 31.9884L42.2453 30.0827L33.4493 28.177C32.8501 30.9427 32.586 33.8577 32.586 36.8705H41.586ZM42.2453 30.0827L51.0736 31.8319C51.3635 30.3691 51.7322 29.3115 52.0923 28.5657L43.9876 24.6524L35.8829 20.7392C34.7361 23.1143 33.9433 25.6768 33.4169 28.3335L42.2453 30.0827ZM43.9876 24.6524L52.1124 28.5238C52.59 27.5214 53.0473 26.9321 53.3936 26.5879L47.0484 20.2052L40.7032 13.8225C38.6636 15.8502 37.0804 18.2257 35.8627 20.7811L43.9876 24.6524ZM47.0484 20.2052L53.4781 26.5028C53.9081 26.0638 54.1803 25.9317 54.2734 25.893L50.8156 17.5837L47.3577 9.27449C44.751 10.3592 42.5118 11.9749 40.6187 13.9077L47.0484 20.2052ZM50.8156 17.5837L54.3658 25.8539C54.6983 25.7111 54.8914 25.6943 55.0065 25.6943V16.6943V7.69429C52.2962 7.69429 49.6954 8.27038 47.2653 9.31354L50.8156 17.5837ZM55.0065 16.6943V25.6943C55.431 25.6943 55.49 25.76 55.3317 25.6968C55.2547 25.6661 55.1551 25.6159 55.0498 25.543C54.9446 25.4702 54.8661 25.3972 54.8162 25.3426L61.4578 19.269L68.0995 13.1954C64.5251 9.28669 59.783 7.69429 55.0065 7.69429V16.6943ZM61.4578 19.269L54.872 25.403C54.6531 25.168 54.6169 25.0042 54.6527 25.1161C54.7002 25.2641 54.8123 25.7211 54.8123 26.6186H63.8123H72.8123C72.8123 22.0334 71.688 17.0477 68.0436 13.1349L61.4578 19.269ZM63.8123 26.6186H54.8123C54.8123 27.9271 54.6263 29.1928 54.2507 30.4436L62.8705 33.0319L71.4903 35.6202C72.3704 32.689 72.8123 29.6793 72.8123 26.6186H63.8123ZM62.8705 33.0319L54.2257 30.5285C53.8806 31.7202 53.3354 32.945 52.5339 34.2116L60.1393 39.0239L67.7447 43.8362C69.3919 41.233 70.6675 38.4632 71.5153 35.5353L62.8705 33.0319ZM60.1393 39.0239L52.037 35.1056C51.6523 35.9011 51.0675 36.8018 50.19 37.7959L56.9372 43.752L63.6844 49.7081C65.5067 47.6438 67.0566 45.3924 68.2416 42.9423L60.1393 39.0239ZM56.9372 43.752L50.19 37.7959C49.2348 38.8779 48.1323 39.9117 46.8644 40.892L52.3695 48.012L57.8747 55.1319C59.9972 53.4908 61.9398 51.6845 63.6844 49.7081L56.9372 43.752ZM52.3695 48.012L46.883 40.8777C45.5992 41.865 44.3393 42.6709 43.1055 43.3176L47.2838 51.2889L51.4622 59.2601C53.6817 58.0968 55.8122 56.718 57.856 55.1463L52.3695 48.012ZM47.2838 51.2889L42.9408 43.4061C40.8572 44.5541 38.8334 45.4004 36.8665 45.9824L39.4199 54.6126L41.9733 63.2427C45.2803 62.2643 48.4993 60.8948 51.6269 59.1716L47.2838 51.2889ZM39.4199 54.6126L36.9876 45.9474C35.1846 46.4535 33.1528 46.7361 30.8496 46.7361V55.7361V64.7361C34.6366 64.7361 38.3183 64.2696 41.8521 63.2777L39.4199 54.6126ZM30.8496 55.7361V46.7361C29.1338 46.7361 27.463 46.4553 25.7974 45.8767L22.8443 54.3785L19.8913 62.8802C23.4369 64.1118 27.103 64.7361 30.8496 64.7361V55.7361ZM22.8443 54.3785L25.8877 45.9087C24.3962 45.3728 23.0715 44.5808 21.8625 43.4882L15.828 50.1653L9.79351 56.8425C12.7283 59.4949 16.0812 61.5117 19.801 62.8483L22.8443 54.3785ZM15.828 50.1653L21.9172 43.538C20.8852 42.5898 19.9403 41.2972 19.1623 39.4728L10.8836 43.003L2.60485 46.5332C4.27554 50.4512 6.62691 53.9335 9.73877 56.7927L15.828 50.1653ZM10.8836 43.003L19.1436 39.4293C18.4794 37.894 18 35.7442 18 32.751H9H0C0 37.6224 0.776313 42.3072 2.62353 46.5767L10.8836 43.003ZM9 32.751H18C18 28.7642 18.1143 27.9977 18.6875 26.8245L10.601 22.8736L2.51463 18.9226C-0.114265 24.3032 0 29.0606 0 32.751H9ZM22.0438 12.4761L23.7007 21.3223C25.046 21.0703 26.8661 20.6899 29.081 20.3024C30.1332 20.1182 31.1328 19.9591 31.991 19.8482C32.4175 19.7931 32.7751 19.7544 33.0625 19.7302C33.2043 19.7183 33.3166 19.711 33.4018 19.7068C33.4437 19.7047 33.4759 19.7035 33.4991 19.7029C33.5105 19.7026 33.5191 19.7024 33.5251 19.7023C33.531 19.7023 33.5339 19.7023 33.5337 19.7023V10.7023V1.70226C31.2027 1.70226 28.1189 2.19722 25.9785 2.57174C23.7041 2.9697 21.2078 3.47621 20.3869 3.62994L22.0438 12.4761ZM33.5337 10.7023V19.7023H48.6965V10.7023V1.70226H33.5337V10.7023ZM48.6965 10.7023C45.4643 2.30268 45.4651 2.30239 45.4658 2.30212C45.4659 2.30208 45.4665 2.30185 45.4667 2.30176C45.4672 2.30157 45.4673 2.30153 45.4671 2.3016C45.4668 2.30175 45.465 2.3024 45.462 2.30355C45.456 2.30586 45.4448 2.31016 45.4285 2.31636C45.3959 2.32878 45.3431 2.34882 45.2714 2.37584C45.128 2.4299 44.9091 2.51179 44.6247 2.61642C44.0552 2.82593 43.2271 3.12514 42.2193 3.47373C40.188 4.17634 37.4988 5.05455 34.7605 5.80338C31.9364 6.57568 29.4355 7.10502 27.6646 7.26704C26.7556 7.3502 26.4653 7.29329 26.6043 7.31629C26.6984 7.33187 27.1126 7.40593 27.6926 7.67414C28.2906 7.95065 29.205 8.50113 30.0405 9.52044L23.0798 15.2256L16.1191 20.9308C18.5684 23.919 21.8711 24.7778 23.6653 25.0747C25.6596 25.4048 27.6562 25.343 29.3046 25.1922C32.6485 24.8862 36.344 24.0313 39.5086 23.1659C42.7591 22.277 45.8508 21.264 48.1033 20.4848C49.2375 20.0926 50.1769 19.7533 50.8396 19.5095C51.1713 19.3874 51.4346 19.289 51.6193 19.2194C51.7117 19.1846 51.7845 19.1569 51.8365 19.1371C51.8625 19.1272 51.8833 19.1193 51.8987 19.1134C51.9064 19.1104 51.9128 19.108 51.9178 19.106C51.9203 19.1051 51.9225 19.1042 51.9243 19.1035C51.9252 19.1032 51.9263 19.1028 51.9268 19.1026C51.9278 19.1022 51.9287 19.1018 48.6965 10.7023ZM23.0798 15.2256L30.0405 9.52044C26.9298 5.72524 22.5304 5.21037 19.4113 5.86616C16.8077 6.41357 14.7461 7.75621 13.5093 8.67739C10.87 10.6432 8.51086 13.3515 6.97636 15.5176L14.3203 20.7202L21.6642 25.9228C22.464 24.7938 23.5645 23.6323 24.2613 23.1133C24.6926 22.792 24.2683 23.2385 23.1148 23.481C22.4379 23.6234 21.2473 23.7471 19.8126 23.3397C18.2724 22.9024 17.0001 22.0057 16.1191 20.9308L23.0798 15.2256ZM11.7482 32.1425H2.74818C2.74818 36.6986 4.71062 41.5625 5.27044 43.1465L13.756 40.1474L22.2417 37.1484C21.764 35.7968 21.3973 34.8198 21.0927 33.7649C20.9524 33.279 20.8604 32.8895 20.8054 32.5832C20.7492 32.2705 20.7482 32.1349 20.7482 32.1425H11.7482ZM13.756 40.1474L5.24681 43.0788C6.41347 46.4654 8.19674 49.5332 10.5919 52.2001L17.2878 46.1863L23.9836 40.1725C23.2395 39.344 22.6683 38.3859 22.2653 37.2161L13.756 40.1474ZM17.2878 46.1863L10.6461 52.2599C13.1296 54.9757 16.1236 57.0451 19.4843 58.5096L23.0798 50.259L26.6752 42.0084C25.4526 41.4756 24.5852 40.8298 23.9294 40.1127L17.2878 46.1863ZM23.0798 50.259L19.5795 58.5504C23.1868 60.0733 27.0702 60.7102 31.0379 60.7102V51.7102V42.7102C28.9782 42.7102 27.5562 42.3796 26.5801 41.9675L23.0798 50.259ZM31.0379 51.7102V60.7102C33.4097 60.7102 35.7174 60.5396 37.9323 60.1585L36.4061 51.2889L34.88 42.4192C33.83 42.5999 32.5589 42.7102 31.0379 42.7102V51.7102ZM36.4061 51.2889L37.9613 60.1535C37.8897 60.166 37.9011 60.1579 38.0945 60.1469C38.52 60.1225 38.3786 60.1391 39.1369 60.1033C40.107 60.0577 42.0106 59.9447 44.129 59.1381L40.9267 50.7271L37.7244 42.3161C38.3674 42.0713 38.8113 42.0987 38.2902 42.1233C38.1582 42.1295 38.0332 42.1338 37.8112 42.1422C37.6138 42.1497 37.3505 42.16 37.0664 42.1763C36.4926 42.2091 35.7231 42.2712 34.851 42.4242L36.4061 51.2889ZM45.5415 48.012L49.3472 56.1677C51.5611 55.1347 53.6767 53.8103 55.6972 52.2743L50.2505 45.1096L44.8038 37.9448C43.6222 38.8431 42.5985 39.4537 41.7358 39.8562L45.5415 48.012ZM50.2505 45.1096L55.6972 52.2743C57.8198 50.6607 59.7714 48.8129 61.5594 46.7589L54.7711 40.8496L47.9828 34.9404C46.9454 36.1321 45.8833 37.1242 44.8038 37.9448L50.2505 45.1096ZM54.7711 40.8496L61.5594 46.7589C63.4079 44.6353 65.0014 42.3337 66.3277 39.8614L58.397 35.6066L50.4662 31.3518C49.7835 32.6245 48.9596 33.8182 47.9828 34.9404L54.7711 40.8496ZM58.397 35.6066L66.2447 40.0126C67.4083 37.9402 68.2794 35.7139 68.7663 33.3477L59.9509 31.5339L51.1356 29.7201C51.0574 30.1003 50.8926 30.5891 50.5493 31.2006L58.397 35.6066ZM59.9509 31.5339L68.7342 33.4973C69.2064 31.3845 69.4218 29.2231 69.4218 27.0399H60.4218H51.4218C51.4218 28.0399 51.3233 28.8745 51.1677 29.5705L59.9509 31.5339ZM60.4218 27.0399H69.4218C69.4218 23.7229 68.7087 18.873 64.7556 15.4054L58.8208 22.1714L52.886 28.9373C51.9858 28.1477 51.6054 27.3077 51.472 26.9023C51.3563 26.5504 51.4218 26.5273 51.4218 27.0399H60.4218ZM58.8208 22.1714L64.9635 15.5936C61.9756 12.8033 58.2927 11.7202 54.7711 11.7202V20.7202V29.7202C54.731 29.7202 54.4369 29.7136 53.9953 29.5554C53.5303 29.3888 53.0665 29.1118 52.678 28.7491L58.8208 22.1714ZM54.7711 20.7202V11.7202C51.2113 11.7202 47.8945 12.8409 45.0675 14.9152L50.3917 22.1714L55.716 29.4275C55.6648 29.4651 55.5249 29.5537 55.3064 29.6261C55.086 29.6992 54.8927 29.7202 54.7711 29.7202V20.7202ZM50.3917 22.1714L45.0675 14.9152C42.5649 16.7514 40.6189 19.1001 39.2297 21.807L47.2367 25.9164L55.2438 30.0258C55.4242 29.6743 55.5815 29.5262 55.716 29.4275L50.3917 22.1714ZM47.2367 25.9164L39.2646 21.7397C38.001 24.1515 37.171 26.739 36.686 29.4126L45.5415 31.019L54.397 32.6253C54.6027 31.4914 54.9028 30.6773 55.2089 30.0931L47.2367 25.9164ZM45.5415 31.019L36.7183 29.2439C36.2206 31.7177 35.9764 34.2322 35.9764 36.7769H44.9764H53.9764C53.9764 35.3894 54.109 34.0652 54.3647 32.794L45.5415 31.019ZM44.9764 36.7769H35.9764C35.9764 40.1111 36.3163 43.3473 37.1448 46.3672L45.8241 43.9861L54.5034 41.605C54.2017 40.5054 53.9764 38.9354 53.9764 36.7769H44.9764ZM45.8241 43.9861L37.1202 46.2759C37.8302 48.9747 38.881 51.6409 40.4683 54.0077L47.9431 48.995L55.4179 43.9823C55.2471 43.7277 54.8853 43.0546 54.5279 41.6962L45.8241 43.9861ZM47.9431 48.995L40.4419 53.9682C41.9563 56.2523 43.9712 58.377 46.6284 59.8762L51.051 52.0379L55.4737 44.1995C55.6326 44.2892 55.705 44.3604 55.6991 44.3547C55.6892 44.3449 55.5965 44.2515 55.4442 44.0218L47.9431 48.995ZM51.051 52.0379L46.7175 59.9259C49.1238 61.2479 51.8277 62.0209 54.724 62.0209V53.0209V44.0209C54.8892 44.0209 55.0512 44.0438 55.1909 44.0812C55.327 44.1176 55.3935 44.1548 55.3845 44.1499L51.051 52.0379ZM54.724 53.0209V62.0209C58.2068 62.0209 61.9606 60.9958 65.0106 58.1475L58.8679 51.5697L52.7251 44.992C53.1488 44.5963 53.6327 44.3207 54.0803 44.1639C54.5001 44.0169 54.752 44.0209 54.724 44.0209V53.0209ZM58.8679 51.5697L65.1141 58.0493C68.6648 54.6265 69.4218 50.1105 69.4218 46.748H60.4218H51.4218C51.4218 47.1938 51.365 47.1717 51.4672 46.8546C51.5842 46.4918 51.9003 45.7856 52.6216 45.0902L58.8679 51.5697ZM60.4218 46.748H69.4218C69.4218 44.8947 69.2735 43.0596 68.9559 41.2554L60.0922 42.8158L51.2285 44.3761C51.3504 45.0686 51.4218 45.855 51.4218 46.748H60.4218ZM60.0922 42.8158L68.9915 41.473C68.6218 39.0227 67.777 36.7479 66.6013 34.6759L58.7737 39.1176L50.9461 43.5592C51.1517 43.9215 51.1859 44.1121 51.1929 44.1585L60.0922 42.8158ZM58.7737 39.1176L66.9678 35.3951C65.6718 32.5423 63.9277 29.959 61.7901 27.657L55.1949 33.7809L48.5996 39.9049C49.4758 40.8485 50.1176 41.823 50.5796 42.84L58.7737 39.1176ZM55.1949 33.7809L61.7901 27.657C59.7717 25.4832 57.5145 23.5939 55.0235 22.0141L50.2034 29.6146L45.3833 37.215C46.5339 37.9447 47.6043 38.8329 48.5996 39.9049L55.1949 33.7809ZM50.2034 29.6146L55.1153 22.0731C52.6529 20.4694 50.0152 19.2015 47.2071 18.4179L44.7881 27.0867L42.3691 35.7555C43.1398 35.9706 44.1123 36.388 45.2915 37.156L50.2034 29.6146ZM44.7881 27.0867L47.6811 18.5643C45.8976 17.9589 44.0764 17.5139 42.2224 17.2442L40.9267 26.1504L39.6311 35.0567C40.3513 35.1615 41.1043 35.3406 41.8951 35.6091L44.7881 27.0867ZM40.9267 26.1504L42.3979 17.2715C40.5883 16.9717 38.7619 16.8228 36.9241 16.8228V25.8228V34.8228C37.7861 34.8228 38.6282 34.8923 39.4556 35.0294L40.9267 26.1504ZM36.9241 25.8228V16.8228C33.8969 16.8228 30.768 17.2323 27.8424 18.4194L31.2263 26.759L34.6102 35.0986C34.7611 35.0374 35.4307 34.8228 36.9241 34.8228V25.8228ZM31.2263 26.759L28.0458 18.3397C25.5225 19.2929 23.0146 20.7399 20.9519 22.9319L27.5062 29.0996L34.0605 35.2674C33.8186 35.5244 33.7908 35.411 34.4068 35.1783L31.2263 26.759ZM27.5062 29.0996L20.9519 22.9319C19.3036 24.6836 17.8911 26.8171 17.0644 29.3573L25.6226 32.1425L34.1808 34.9277C34.1159 35.127 34.044 35.26 34.005 35.323C33.9682 35.3824 33.9724 35.361 34.0605 35.2674L27.5062 29.0996ZM25.6226 32.1425L16.6678 31.2417L16.4324 33.5823L25.3872 34.4831L34.342 35.3839L34.5774 33.0432L25.6226 32.1425ZM25.3872 34.4831L16.4787 33.203C16.3672 33.9789 16.3401 34.6986 16.3401 35.2789H25.3401H34.3401C34.3401 35.2706 34.3404 35.3059 34.3361 35.3775C34.332 35.4468 34.322 35.5802 34.2957 35.7632L25.3872 34.4831ZM25.3401 35.2789L16.3958 34.2792C16.3275 34.89 16.293 35.5046 16.293 36.1215H25.293H34.293C34.293 36.1767 34.2899 36.2296 34.2844 36.2786L25.3401 35.2789ZM25.293 36.1215H16.293C16.293 38.1691 16.6089 40.2935 17.4023 42.3727L25.811 39.1644L34.2197 35.956C34.2692 36.0858 34.2886 36.1776 34.2949 36.2145C34.3008 36.2495 34.293 36.2229 34.293 36.1215H25.293ZM25.811 39.1644L17.341 42.2073C18.1975 44.5915 19.6854 46.7568 21.8352 48.4082L27.3179 41.2709L32.8005 34.1337C33.1517 34.4034 33.4742 34.7343 33.7432 35.1102C34.0095 35.4826 34.1786 35.8365 34.281 36.1215L25.811 39.1644ZM27.3179 41.2709L21.8352 48.4082C24.381 50.3638 27.2777 51.0668 29.9078 51.0668V42.0668V33.0668C30.466 33.0668 31.636 33.2392 32.8005 34.1337L27.3179 41.2709ZM29.9078 42.0668V51.0668C32.9826 51.0668 36.1378 50.0987 38.7532 47.8107L32.8273 41.0369L26.9015 34.2631C27.3595 33.8624 27.9128 33.5343 28.5149 33.3219C29.1027 33.1145 29.5955 33.0668 29.9078 33.0668V42.0668ZM32.8273 41.0369L38.9014 47.6781C41.9249 44.9128 43.0046 41.2901 43.0046 38.0409H34.0046H25.0046C25.0046 37.7661 25.0469 37.1879 25.3337 36.4581C25.6349 35.6916 26.1235 34.9716 26.7533 34.3956L32.8273 41.0369ZM34.0046 38.0409H43.0046C43.0046 34.8404 41.9214 31.4885 39.2667 28.8494L32.9215 35.2321L26.5763 41.6148C26.0533 41.0949 25.6181 40.4411 25.3365 39.7107C25.0634 39.0024 25.0046 38.4059 25.0046 38.0409H34.0046ZM32.9215 35.2321L39.1295 28.7159C36.25 25.9726 32.7166 25.1554 29.7665 25.1554L29.7665 34.1554V43.1554C29.6578 43.1554 29.2472 43.1423 28.6609 42.9422C28.0397 42.7302 27.3425 42.3475 26.7135 41.7483L32.9215 35.2321ZM29.7665 34.1554L29.7665 25.1554C27.6158 25.1554 25.438 25.5628 23.351 26.4849L26.9882 34.7172L30.6255 42.9494C30.2337 43.1225 29.908 43.1554 29.7665 43.1554V34.1554ZM26.9882 34.7172L23.351 26.4849C21.3309 27.3774 19.6323 28.6445 18.2217 29.9948L24.4454 36.496L30.669 42.9973C30.7355 42.9336 30.787 42.8887 30.8227 42.8591C30.8584 42.8296 30.8763 42.817 30.8758 42.8174C30.8758 42.8174 30.793 42.8754 30.6255 42.9494L26.9882 34.7172ZM24.4454 36.496L33.4277 37.0608L33.6631 33.3157L24.6808 32.751L15.6986 32.1863L15.4631 35.9313L24.4454 36.496ZM24.6808 32.751L31.026 39.1337C30.7724 39.3858 30.542 39.5314 30.4072 39.6019L26.2348 31.6275L22.0624 23.6531C20.7346 24.3478 19.4682 25.2424 18.3357 26.3683L24.6808 32.751ZM26.2348 31.6275L30.9077 39.3193C30.6939 39.4492 30.5316 39.5024 30.4735 39.5181L28.1184 30.8317L25.7633 22.1453C24.3239 22.5356 22.9058 23.1192 21.5619 23.9357L26.2348 31.6275ZM28.1184 30.8317L30.9493 39.3749C30.6212 39.4836 30.3645 39.504 30.2374 39.504V30.504L30.2374 21.504C28.6034 21.504 26.9341 21.7429 25.2874 22.2885L28.1184 30.8317ZM30.2374 30.504V39.504C30.2504 39.504 30.166 39.505 30.0121 39.4672C29.8538 39.4284 29.6724 39.3608 29.4926 39.2609L33.8633 31.3935L38.234 23.526C35.6924 22.114 32.9517 21.504 30.2374 21.504L30.2374 30.504ZM33.8633 31.3935L29.3925 39.2045C29.1585 39.0705 28.9294 38.893 28.7309 38.6842C28.5352 38.4784 28.4199 38.2959 28.3628 38.1884L36.312 33.9682L44.2612 29.7479C42.9223 27.226 40.9434 25.0759 38.3341 23.5825L33.8633 31.3935ZM36.312 33.9682L28.3628 38.1884C28.229 37.9364 28.1889 37.7666 28.1836 37.742C28.1797 37.7238 28.2067 37.8416 28.2067 38.1345H37.2067H46.2067C46.2067 35.437 45.7237 32.5029 44.2612 29.7479L36.312 33.9682ZM37.2067 38.1345H28.2067C28.2067 38.196 28.2006 38.1788 28.2179 38.1045C28.2359 38.0273 28.2686 37.9339 28.3158 37.8427L36.312 41.9731L44.3082 46.1036C45.6165 43.5707 46.2067 40.8576 46.2067 38.1345H37.2067ZM36.312 41.9731L28.3158 37.8427C28.3718 37.7341 28.4669 37.5867 28.6077 37.4337C28.7487 37.2806 28.8902 37.1712 28.9998 37.1027L33.7691 44.7351L38.5384 52.3675C41.0122 50.8217 42.9724 48.6895 44.3082 46.1036L36.312 41.9731ZM29.7621 45.4831V36.4831C29.4441 36.4831 29.2785 36.4749 29.2024 36.469C29.132 36.4636 29.2143 36.4654 29.3931 36.5059C29.5842 36.549 29.8638 36.6311 30.1884 36.7804C30.5179 36.9319 30.8131 37.1156 31.0601 37.308L25.5284 44.4074L19.9968 51.5067C23.6535 54.356 27.5642 54.4831 29.7621 54.4831V45.4831ZM25.5284 44.4074L31.085 37.3275C31.2032 37.4202 31.2999 37.5274 31.3633 37.6187C31.4229 37.7043 31.4131 37.7181 31.3728 37.6044L22.8914 40.6156L14.4101 43.6267C15.4783 46.6355 17.2894 49.3819 19.9719 51.4873L25.5284 44.4074ZM22.8914 40.6156L31.3728 37.6044C31.2021 37.1238 31.0438 36.3842 31.0438 35.2789H22.0438H13.0438C13.0438 38.1059 13.4506 40.9241 14.4101 43.6267L22.8914 40.6156ZM22.0438 35.2789H31.0438C31.0438 33.4866 31.4078 32.73 31.5535 32.4924L23.8803 27.7889L16.2072 23.0854C13.9041 26.8425 13.0438 31.0792 13.0438 35.2789H22.0438ZM23.8803 27.7889L31.5535 32.4924C31.8093 32.0751 32.1218 31.7679 32.7367 31.4884L29.0131 23.2949L25.2895 15.1013C21.5093 16.8192 18.4 19.508 16.2072 23.0854L23.8803 27.7889ZM29.0131 23.2949L32.8324 31.4443C33.6048 31.0823 34.8251 30.7501 36.7358 30.7501V21.75V12.75C32.7445 12.75 28.8164 13.4477 25.1938 15.1454L29.0131 23.2949ZM36.7358 21.75V30.7501C37.5386 30.7501 38.6852 30.8344 40.2366 31.0696L41.586 22.1714L42.9354 13.2731C40.7824 12.9466 38.6956 12.75 36.7358 12.75V21.75ZM41.586 22.1714L40.2366 31.0696C41.2826 31.2282 42.3495 31.5325 43.4513 32.0129L47.0484 23.763L50.6455 15.5131C48.1685 14.4331 45.5938 13.6762 42.9354 13.2731L41.586 22.1714ZM47.0484 23.763L44.0109 32.2349C45.2294 32.6718 46.3461 33.2387 47.3801 33.9369L52.4166 26.4781L57.4531 19.0194C55.1595 17.4706 52.6973 16.2274 50.0859 15.2911L47.0484 23.763ZM52.4166 26.4781L47.4774 34.0017C48.5566 34.7102 49.5195 35.5195 50.3806 36.4352L56.9372 30.27L63.4938 24.1047C61.6551 22.1492 59.6042 20.4306 57.3558 18.9545L52.4166 26.4781ZM56.9372 30.27L50.3806 36.4352C51.2613 37.3719 52.0061 38.3749 52.628 39.4519L60.4218 34.9512L68.2157 30.4505C66.8912 28.157 65.3129 26.0392 63.4938 24.1047L56.9372 30.27ZM60.4218 34.9512L52.4841 39.1931C53.2723 40.668 53.8602 42.1157 54.2728 43.5403L62.9176 41.0369L71.5624 38.5335C70.782 35.8385 69.706 33.2291 68.3595 30.7094L60.4218 34.9512ZM62.9176 41.0369L54.2728 43.5403C54.6361 44.795 54.8123 46.0435 54.8123 47.3098H63.8123H72.8123C72.8123 44.3317 72.392 41.3982 71.5624 38.5335L62.9176 41.0369ZM10.601 22.8736L18.6875 26.8245C20.0124 24.1127 20.7661 23.4549 21.1266 23.1679C21.4013 22.9492 21.8121 22.6761 22.6258 22.2446C23.5811 21.738 24.4355 21.3428 26.0698 20.5254L22.0438 12.4761L18.0178 4.42681C15.9105 5.48084 12.6262 6.92762 9.91583 9.0853C6.76941 11.5901 4.55029 14.7562 2.51463 18.9226L10.601 22.8736ZM14.3203 20.7202L6.97636 15.5176C4.09596 19.5835 3.21817 24.2385 2.90491 27.13C2.73537 28.6949 2.70028 30.0593 2.70716 31.0461C2.71064 31.5443 2.72494 31.9592 2.74004 32.2705C2.74761 32.4264 2.75544 32.5573 2.76232 32.6607C2.76576 32.7124 2.76897 32.7573 2.7718 32.7951C2.77322 32.8141 2.77455 32.8312 2.77576 32.8465C2.77637 32.8542 2.77694 32.8614 2.77749 32.8682C2.77777 32.8716 2.77803 32.8749 2.77829 32.878C2.77842 32.8796 2.77861 32.8819 2.77868 32.8827C2.77886 32.8849 2.77905 32.8871 11.7482 32.1425C20.7173 31.3978 20.7175 31.4 20.7177 31.4021C20.7177 31.4028 20.7179 31.4049 20.718 31.4063C20.7182 31.409 20.7185 31.4116 20.7187 31.4142C20.7191 31.4192 20.7195 31.4239 20.7198 31.4282C20.7205 31.4368 20.721 31.4439 20.7214 31.4495C20.7223 31.4607 20.7226 31.4659 20.7226 31.4654C20.7225 31.4645 20.721 31.4412 20.7189 31.3977C20.7146 31.3102 20.7083 31.1455 20.7067 30.9204C20.7035 30.4605 20.7206 29.8034 20.8002 29.0687C20.9852 27.3611 21.3935 26.3049 21.6642 25.9228L14.3203 20.7202ZM33.7691 44.7351L28.9998 37.1027C29.0325 37.0822 29.0663 37.0622 29.101 37.0427L33.4993 44.8948L37.8976 52.7469C38.1145 52.6254 38.3281 52.4989 38.5384 52.3675L33.7691 44.7351ZM44.8823 50.7271L52.6108 46.1152C52.3104 45.6117 52.0255 45.0205 51.7706 44.3222L43.3162 47.4081L34.8618 50.4941C35.4775 52.1808 36.2367 53.8022 37.1537 55.339L44.8823 50.7271ZM43.3162 47.4081L51.7706 44.3222C51.565 43.7589 51.3783 43.1241 51.2195 42.4094L42.4336 44.3606L33.6477 46.3118C33.9649 47.7405 34.3666 49.1374 34.8618 50.4941L43.3162 47.4081ZM33.4993 44.8948L29.101 37.0427C29.6485 36.7361 30.116 36.5812 30.4014 36.5045C30.677 36.4304 30.8401 36.4143 30.8109 36.4177C30.7798 36.4213 30.6695 36.4321 30.3964 36.446C30.2648 36.4528 30.1207 36.4591 29.9395 36.4668C29.7691 36.474 29.5568 36.4828 29.3423 36.4928L29.7621 45.4831L30.1819 54.4733C30.6307 54.4523 31.8563 54.4177 32.8948 54.2966C34.0086 54.1668 35.9253 53.8517 37.8976 52.7469L33.4993 44.8948ZM29.7621 45.4831L29.3423 36.4928C29.3179 36.494 29.2846 36.4956 29.2464 36.4977C29.2166 36.4994 29.1437 36.5035 29.0528 36.5103C29.0103 36.5135 28.9191 36.5206 28.8041 36.5325C28.7463 36.5384 28.6499 36.5489 28.531 36.5648C28.4699 36.5729 28.3876 36.5846 28.2905 36.6002C28.198 36.6152 28.0572 36.6393 27.8866 36.6749C27.7992 36.6931 27.6889 36.7175 27.5618 36.7489C27.4376 36.7796 27.2704 36.8238 27.0746 36.8841C26.9934 36.9095 26.8205 36.9665 26.7287 36.9983C26.6228 37.0365 26.3952 37.1235 26.2738 37.1728C26.131 37.2336 25.8217 37.3752 25.6559 37.4571C25.4565 37.5613 25.0224 37.8109 24.7894 37.9585C24.5039 38.1536 23.8868 38.6347 23.5613 38.9259C23.1646 39.3226 22.3596 40.3111 21.9723 40.9116C21.5565 41.7036 20.936 43.5408 20.7696 44.575C20.7258 45.6924 21.0364 47.8384 21.3711 48.838C21.7496 49.6592 22.6311 51.0263 23.0994 51.5784C23.4975 51.9847 24.2658 52.642 24.6243 52.9017C24.9167 53.0945 25.4601 53.4118 25.708 53.5402C25.9128 53.6391 26.2921 53.8058 26.4656 53.8752C26.6122 53.9307 26.8848 54.0262 27.0106 54.067C27.1191 54.1005 27.3221 54.1593 27.4165 54.1849C27.6434 54.2451 27.8358 54.2866 27.9752 54.3142C28.1185 54.3425 28.2422 54.3634 28.3387 54.3784C28.4366 54.3937 28.5226 54.4054 28.5929 54.4143C28.7304 54.4317 28.8449 54.443 28.9242 54.4501C29.0065 54.4574 29.0767 54.4625 29.1304 54.4661C29.2349 54.473 29.32 54.4768 29.3734 54.4789C29.4302 54.4811 29.4779 54.4824 29.5128 54.4833C29.5808 54.4849 29.636 54.4854 29.6692 54.4856C29.7359 54.4861 29.7898 54.4857 29.8185 54.4855C29.8797 54.4849 29.9328 54.4839 29.971 54.483C30.0088 54.4822 30.0627 54.4807 30.125 54.4784C30.1539 54.4773 30.2102 54.4751 30.28 54.4713C30.3145 54.4695 30.374 54.4661 30.4478 54.4607C30.4855 54.458 30.5386 54.454 30.6021 54.4483C30.6609 54.443 30.76 54.4336 30.8827 54.4188C30.9456 54.4112 31.0313 54.4001 31.1326 54.385C31.2287 54.3706 31.3777 54.3468 31.5588 54.3108C31.6516 54.2923 31.7702 54.2672 31.9074 54.2342C32.0409 54.202 32.2242 54.1547 32.4398 54.0887C32.5294 54.0607 32.7217 53.9972 32.8243 53.9613C32.943 53.918 33.2 53.8178 33.3379 53.7603C33.5007 53.6888 33.8561 53.5192 34.0477 53.4196C34.2789 53.2915 34.7854 52.9784 35.0577 52.7901C35.3914 52.5381 36.1079 51.9057 36.4803 51.5175C36.922 50.9893 37.7648 49.6792 38.1329 48.8901C38.4694 47.9095 38.7979 45.772 38.7631 44.6426C38.5968 43.5705 37.9473 41.6546 37.5028 40.8249C37.0845 40.1949 36.2126 39.1662 35.7824 38.7577C35.4309 38.4608 34.7664 37.9764 34.4602 37.7827C34.2117 37.6378 33.7502 37.3958 33.5391 37.2961C33.3643 37.2185 33.0393 37.0859 32.8897 37.0298C32.763 36.9846 32.526 36.9057 32.4159 36.8715C32.3209 36.8432 32.1421 36.7931 32.0583 36.771C31.8566 36.7188 31.6849 36.6818 31.5582 36.6566C31.4284 36.6308 31.3159 36.6114 31.2272 36.5972C31.1372 36.5827 31.0581 36.5714 30.9928 36.5627C30.8651 36.5457 30.7585 36.5342 30.6836 36.5269C30.6062 36.5193 30.54 36.5137 30.4891 36.5098C30.3898 36.5022 30.3088 36.4977 30.2575 36.4951C30.1563 36.4899 30.0757 36.4876 30.0357 36.4865C29.9518 36.4843 29.8843 36.4836 29.8549 36.4834C29.8183 36.4831 29.7861 36.4831 29.7621 36.4831V45.4831V54.4831C29.7555 54.4831 29.7374 54.483 29.712 54.4828C29.694 54.4827 29.6349 54.4822 29.557 54.4801C29.52 54.4791 29.4419 54.4769 29.3425 54.4718C29.2922 54.4692 29.2119 54.4647 29.1133 54.4572C29.0627 54.4533 28.9968 54.4478 28.9196 54.4402C28.845 54.4329 28.7387 54.4215 28.6111 54.4045C28.546 54.3958 28.4669 54.3845 28.3771 54.3701C28.2884 54.3559 28.176 54.3365 28.0463 54.3107C27.9197 54.2855 27.748 54.2485 27.5464 54.1963C27.4626 54.1742 27.2838 54.1241 27.1888 54.0958C27.0787 54.0617 26.8418 53.9828 26.7151 53.9376C26.5655 53.8814 26.2405 53.7488 26.0657 53.6713C25.8546 53.5716 25.3932 53.3296 25.1447 53.1847C24.8385 52.991 24.174 52.5066 23.8225 52.2098C23.3924 51.8012 22.5204 50.7725 22.1021 50.1425C21.6577 49.3128 21.0082 47.397 20.8419 46.3248C20.8071 45.1955 21.1355 43.058 21.472 42.0774C21.8402 41.2883 22.6829 39.9781 23.1246 39.45C23.497 39.0618 24.2135 38.4294 24.5472 38.1774C24.8195 37.9891 25.3259 37.676 25.5572 37.5479C25.7488 37.4484 26.1041 37.2788 26.2669 37.2073C26.4048 37.1497 26.6617 37.0496 26.7804 37.0063C26.883 36.9704 27.0753 36.9069 27.1649 36.8789C27.3804 36.8129 27.5637 36.7656 27.6972 36.7335C27.8342 36.7005 27.9528 36.6754 28.0455 36.6569C28.2264 36.6209 28.3752 36.5972 28.4711 36.5828C28.5723 36.5677 28.6578 36.5567 28.7204 36.5491C28.8425 36.5343 28.9411 36.525 28.9991 36.5198C29.062 36.5142 29.1143 36.5102 29.1511 36.5075C29.223 36.5023 29.2804 36.4991 29.3125 36.4973C29.3775 36.4938 29.4277 36.4919 29.4496 36.4911C29.4982 36.4892 29.535 36.4883 29.5557 36.4878C29.5767 36.4873 29.6126 36.4866 29.6599 36.4862C29.6816 36.486 29.7292 36.4856 29.7909 36.4861C29.8216 36.4863 29.8745 36.4868 29.9407 36.4883C29.9746 36.4892 30.0216 36.4905 30.0776 36.4927C30.1302 36.4947 30.2147 36.4985 30.3186 36.5054C30.372 36.5089 30.442 36.514 30.524 36.5213C30.6031 36.5284 30.7174 36.5396 30.8547 36.557C30.9249 36.5659 31.0108 36.5776 31.1087 36.5928C31.2051 36.6079 31.3287 36.6287 31.4719 36.6571C31.6113 36.6847 31.8037 36.7262 32.0305 36.7863C32.1249 36.8119 32.3279 36.8707 32.4363 36.9042C32.5621 36.945 32.8347 37.0405 32.9813 37.0959C33.1548 37.1654 33.534 37.3321 33.7389 37.431C33.9867 37.5594 34.5301 37.8767 34.8225 38.0694C35.181 38.3291 35.9493 38.9865 36.3473 39.3927C36.8157 39.9448 37.6971 41.3119 38.0757 42.1331C38.4104 43.1327 38.721 45.2787 38.6772 46.3961C38.5108 47.4302 37.8902 49.2674 37.4745 50.0594C37.0872 50.66 36.2822 51.6485 35.8855 52.0451C35.56 52.3364 34.9429 52.8174 34.6574 53.0125C34.4245 53.1601 33.9904 53.4097 33.791 53.5139C33.6252 53.5958 33.3159 53.7374 33.173 53.7981C33.0517 53.8475 32.8241 53.9345 32.7182 53.9726C32.6265 54.0044 32.4536 54.0614 32.3725 54.0868C32.1767 54.1471 32.0095 54.1912 31.8854 54.2219C31.7584 54.2534 31.6481 54.2777 31.5608 54.2959C31.3905 54.3314 31.2498 54.3556 31.1576 54.3704C31.0606 54.3861 30.9786 54.3977 30.9179 54.4058C30.7995 54.4216 30.7039 54.432 30.647 54.4379C30.5336 54.4495 30.4447 54.4564 30.405 54.4594C30.3199 54.4658 30.2551 54.4694 30.2363 54.4705C30.209 54.472 30.1894 54.4729 30.1819 54.4733L29.7621 45.4831ZM40.9267 50.7271L42.0007 59.6628C42.3313 59.6231 42.7281 59.5663 43.1525 59.4797C43.5267 59.4033 44.2049 59.2483 44.9814 58.9332C45.3831 58.7702 45.9646 58.5031 46.6063 58.0815C47.2346 57.6687 48.1429 56.9627 48.9612 55.8463C49.8351 54.654 50.5317 53.0852 50.6848 51.2346C50.8338 49.4331 50.4224 47.9239 49.9576 46.8592C49.512 45.8385 48.9702 45.1106 48.6249 44.6931C48.2673 44.2606 47.9421 43.9489 47.7634 43.7841C47.5822 43.6168 47.4283 43.4889 47.407 43.4709C47.3272 43.4041 47.4503 43.5061 47.557 43.6005C47.6559 43.6879 48.02 44.0099 48.4255 44.4866C48.6404 44.7393 48.9472 45.1282 49.2586 45.6419C49.5653 46.148 49.9642 46.9188 50.2389 47.9247C50.5231 48.9653 50.682 50.2941 50.4306 51.7832C50.1748 53.2993 49.5546 54.6145 48.766 55.6683C48.0122 56.6756 47.1829 57.3438 46.5457 57.7666C45.9081 58.1896 45.3296 58.4553 44.92 58.6187L41.586 50.259L38.252 41.8993C37.8296 42.0677 37.2405 42.3389 36.5945 42.7675C35.9488 43.1958 35.1131 43.87 34.3547 44.8833C33.5615 45.9432 32.9387 47.2648 32.6817 48.7875C32.4292 50.2832 32.5886 51.6188 32.8747 52.6665C33.1513 53.6793 33.5536 54.4575 33.8648 54.971C34.1807 55.4922 34.4932 55.8888 34.7149 56.1493C34.9422 56.4166 35.1456 56.6243 35.2869 56.7625C35.4311 56.9037 35.554 57.0146 35.6335 57.0849C35.7597 57.1965 35.9044 57.3164 35.8468 57.2681C35.8415 57.2637 35.807 57.2348 35.7618 57.1958C35.7156 57.1559 35.6434 57.0927 35.5564 57.0124C35.399 56.8672 35.0938 56.5757 34.7533 56.1638C34.4251 55.7669 33.8973 55.0601 33.461 54.0608C33.0056 53.0175 32.5988 51.53 32.746 49.7505C32.8186 48.8741 33.0188 48.026 33.3298 47.231C33.6382 46.4425 34.031 45.7678 34.4431 45.2055C35.2449 44.1115 36.1287 43.4281 36.7224 43.038C37.3297 42.639 37.8667 42.3947 38.2124 42.2544C38.5729 42.1082 38.8737 42.0154 39.0732 41.9597C39.2792 41.9022 39.4446 41.8654 39.5521 41.8435C39.7576 41.8015 39.8753 41.7887 39.8528 41.7914L40.9267 50.7271ZM41.586 50.259L44.92 58.6187C46.3983 58.0291 47.6784 57.2264 48.3113 56.8314C49.1972 56.2785 49.4063 56.1432 49.6126 56.0385L45.5415 48.012L41.4704 39.9854C40.8502 40.3 40.2989 40.6233 39.8711 40.8832C39.4784 41.1218 39.0189 41.4129 38.7813 41.5612C38.4789 41.75 38.3045 41.8541 38.1819 41.9223C38.0595 41.9905 38.0977 41.9608 38.252 41.8993L41.586 50.259Z" fill="#FFEB3B" mask="url(#path-3-outside-1_799_43)"/>
<path d="M26.0249 40.0849C26.8996 41.4214 27.769 41.8075 29.3468 42.0559C30.3154 42.2083 30.9386 42.1357 31.8383 41.746C32.5823 41.4237 33.0359 41.1656 33.4993 40.5003C33.981 39.8087 34.3085 39.2664 34.3298 38.4239C34.3654 37.0136 34.156 36.0191 33.084 35.102C31.948 34.13 31.0078 33.7573 28.9316 33.8563C27.3949 33.9295 25.1944 35.5174 25.1944 35.5174C25.1944 35.5174 25.1193 38.7011 26.0249 40.0849Z" fill="#FF5722" stroke="#26355D"/>
<path d="M41.8044 50.4659C38.4825 50.0507 30.1776 47.5592 28.9318 45.0677L31.8385 43.8219C33.4995 46.7287 43.0501 47.9743 48.4483 47.559C48.4483 47.559 44.6146 50.8171 41.8044 50.4659Z" fill="#26355D"/>
<path d="M55.8286 6.1958C58.3225 6.19583 60.3442 8.21757 60.3442 10.7114C60.3442 13.2053 58.3224 15.227 55.8286 15.2271C53.3348 15.2271 51.313 13.2053 51.313 10.7114C51.313 8.21755 53.3347 6.1958 55.8286 6.1958Z" fill="#FF5722" stroke="#FFEB3B" stroke-width="3"/>
</svg>
