<svg width="192" height="192" viewBox="0 0 192 192" fill="none" xmlns="http://www.w3.org/2000/svg">
<g clip-path="url(#clip0_767_32)">
<g filter="url(#filter0_d_767_32)">
<circle cx="96.0591" cy="96.0591" r="78.0591" fill="#FFEB3B"/>
</g>
<path d="M78.8157 118.842L84.3906 120.515L91.6379 117.541L93.3103 112.338V104.719L89.9654 99.516L84.3906 96.9144L77.3291 97.8436L71.1968 99.516L69.896 104.719L71.1968 114.196L78.8157 118.842Z" fill="#FF5722"/>
<path d="M71.0605 108.888L77.3454 119.744H84.773L91.0578 116.315L95.6287 108.888L91.0578 98.6035L81.9162 95.1754L71.0605 98.6035V108.888Z" fill="#FF5722"/>
<path d="M153.335 127.324C153.335 131.574 152.579 135.236 151.066 138.309C149.619 141.317 147.514 143.638 144.752 145.273C141.989 146.842 138.701 147.626 134.886 147.626C130.216 147.626 126.105 146.449 122.553 144.096C119.001 141.676 116.041 138.472 113.673 134.484C111.371 130.626 109.661 126.179 108.543 121.145C107.359 116.11 106.767 110.879 106.767 105.452C106.767 100.221 107.228 95.48 108.148 91.2299C109.004 86.9143 110.22 83.1218 111.799 79.8525C113.575 76.1254 115.712 73.0195 118.212 70.5348C120.646 68.05 123.276 66.2192 126.105 65.0422C128.999 63.7999 131.926 63.1787 134.886 63.1787C140.608 63.1787 145.113 64.9768 148.402 68.5731C151.691 72.1041 153.335 77.237 153.335 83.9719C153.335 88.549 152.678 93.028 151.362 97.409C150.112 101.725 148.205 105.909 145.64 109.963C143.995 113.363 141.759 116.666 138.931 119.87C136.102 123.074 132.912 126.049 129.361 128.795C125.875 131.476 122.323 133.764 118.705 135.661C113.246 138.668 107.754 140.99 102.229 142.624C96.638 144.194 90.6525 144.978 84.2724 144.978C78.5501 144.978 72.9593 144.03 67.5 142.134C62.0408 140.172 57.1406 137.23 52.7995 133.307C48.4584 129.318 45.0053 124.316 42.4401 118.3C39.8091 112.219 38.4937 105.059 38.4937 96.8205C38.4937 88.7778 38.4937 82.9911 41.8481 76.1254C48.8892 61.7144 54.3053 60.1015 65.8228 54.3409C70.3612 53.4908 83.9107 50.6243 89.8961 50.6243H121.665C121.665 50.6243 74.9572 68.5979 67.9933 60.1015C64.1379 55.3976 54.5313 64.7099 49.6406 71.6136C43.0384 80.9333 44.2516 95.5454 44.2516 95.5454C44.2516 101.038 46.7483 107.479 48.4584 112.317C50.1028 117.091 52.5693 121.308 55.858 124.97C59.1467 128.566 63.1918 131.41 67.9933 133.503C72.7949 135.53 78.3528 136.543 84.6671 136.543C88.7451 136.543 92.4942 136.249 95.9145 135.661C99.2689 135.072 102.492 134.189 105.583 133.012C108.675 131.835 111.832 130.43 115.055 128.795C118.278 127.291 121.566 125.264 124.921 122.714C128.275 120.164 131.432 117.189 134.392 113.789C137.352 110.388 139.884 106.727 141.989 102.803C143.568 99.9918 144.653 97.1474 145.245 94.2704C145.903 91.3279 146.232 88.1894 146.232 84.8546C146.232 80.0159 145.114 76.6158 142.877 74.6542C140.707 72.6272 137.878 71.6136 134.392 71.6136C131.038 71.6136 127.979 72.6272 125.217 74.6542C122.454 76.6812 120.251 79.2967 118.607 82.5006C116.962 85.6392 115.778 89.2029 115.055 93.1915C114.265 97.1147 113.871 101.136 113.871 105.255C113.871 111.01 114.463 116.044 115.647 120.36C116.765 124.61 118.245 128.108 120.086 130.855C121.994 133.732 124.164 135.857 126.598 137.23C129.098 138.603 131.663 139.29 134.294 139.29C137.911 139.29 140.805 138.276 142.976 136.249C145.146 134.157 146.232 130.789 146.232 126.147C146.232 123.27 146.001 120.523 145.541 117.908C145.146 115.292 144.226 112.71 142.779 110.16C140.937 106.105 138.437 102.378 135.28 98.9783C132.123 95.5781 128.637 92.6684 124.822 90.2491C121.007 87.7643 117.225 85.9989 113.476 84.9527C110.779 84.0373 108.083 83.3834 105.386 82.9911C102.623 82.5333 99.828 82.3045 96.9997 82.3045C92.264 82.3045 88.2847 82.9584 85.0617 84.2661C81.773 85.5085 79.1749 87.1432 77.2675 89.1702C75.36 91.1972 74.0446 93.3223 73.321 95.5454L72.8277 100.449C72.762 100.907 72.7291 101.463 72.7291 102.117C72.6633 102.705 72.6304 103.294 72.6304 103.882C72.6304 106.236 72.9922 108.361 73.7157 110.258C74.3734 112.088 75.4258 113.56 76.8729 114.671C78.3199 115.783 80.1287 116.339 82.2992 116.339C84.7329 116.339 86.7719 115.619 88.4162 114.181C90.0606 112.677 90.8827 110.585 90.8827 107.904C90.8827 105.484 90.1263 103.523 88.6135 102.019C87.0349 100.515 84.8315 99.7629 82.0032 99.7629C79.8985 99.7629 77.9581 100.155 76.1822 100.94C74.4063 101.725 72.6304 102.967 70.8545 104.667L71.3478 96.8205C72.2687 95.9051 73.3539 95.1204 74.6036 94.4665C75.7876 93.7473 77.1031 93.1915 78.5501 92.7992C79.9313 92.3414 81.4113 92.1126 82.9898 92.1126C85.8181 92.1126 88.3504 92.7338 90.5868 93.9761C92.7573 95.2185 94.4674 97.0166 95.7171 99.3706C96.9668 101.725 97.5917 104.634 97.5917 108.1C97.5917 111.042 96.9668 113.723 95.7171 116.142C94.4674 118.562 92.6915 120.491 90.3894 121.929C88.0873 123.368 85.4235 124.087 82.3979 124.087C78.6488 124.087 75.5574 123.139 73.1237 121.243C70.6243 119.281 68.7826 116.633 67.5987 113.298C66.4148 109.963 65.8228 106.236 65.8228 102.117C65.8228 95.8397 67.1054 90.6087 69.6706 86.4239C72.2358 82.2391 75.8205 79.1005 80.4247 77.0081C85.0288 74.8503 90.4223 73.7714 96.6051 73.7714C99.4992 73.7714 102.887 74.0657 106.767 74.6542C110.648 75.2427 114.463 76.3542 118.212 77.9889C122.224 79.4275 125.973 81.3237 129.459 83.6776C132.945 85.9662 136.102 88.6144 138.931 91.6222C141.759 94.63 144.193 97.8994 146.232 101.43C148.468 105.615 150.211 109.865 151.461 114.181C152.71 118.496 153.335 122.877 153.335 127.324Z" fill="#26355D"/>
<circle cx="136.608" cy="50.6433" r="6.31815" fill="#FF5722"/>
<path d="M119.34 132.885C119.34 136.598 78.4882 129.171 73.6317 121.172L87.9155 119.458C90.7723 125.743 110.198 130.028 125.053 126.6L119.34 132.885Z" fill="#26355D"/>
</g>
<defs>
<filter id="filter0_d_767_32" x="9.2" y="13.2" width="179.718" height="179.718" filterUnits="userSpaceOnUse" color-interpolation-filters="sRGB">
<feFlood flood-opacity="0" result="BackgroundImageFix"/>
<feColorMatrix in="SourceAlpha" type="matrix" values="0 0 0 0 0 0 0 0 0 0 0 0 0 0 0 0 0 0 127 0" result="hardAlpha"/>
<feOffset dx="3" dy="7"/>
<feGaussianBlur stdDeviation="5.9"/>
<feComposite in2="hardAlpha" operator="out"/>
<feColorMatrix type="matrix" values="0 0 0 0 0.14902 0 0 0 0 0.207843 0 0 0 0 0.364706 0 0 0 0.58 0"/>
<feBlend mode="normal" in2="BackgroundImageFix" result="effect1_dropShadow_767_32"/>
<feBlend mode="normal" in="SourceGraphic" in2="effect1_dropShadow_767_32" result="shape"/>
</filter>
<clipPath id="clip0_767_32">
<rect width="192" height="192" fill="white"/>
</clipPath>
</defs>
</svg>
